<svg width="58" height="58" viewBox="0 0 58 58" fill="none" xmlns="http://www.w3.org/2000/svg">
    <path d="M29 19.707a9.574 9.574 0 0 0-6.234 2.3.8.8 0 1 0 1.039 1.216A7.958 7.958 0 0 1 29 21.307c4.157 0 7.56 3.15 7.96 7.2H34.6l3.2 4.8 3.2-4.8h-2.44c-.41-4.919-4.538-8.8-9.56-8.8zm-8.8 5.6-3.2 4.8h2.44c.41 4.919 4.538 8.8 9.56 8.8a9.573 9.573 0 0 0 6.234-2.3.8.8 0 1 0-1.039-1.216A7.958 7.958 0 0 1 29 37.307a7.988 7.988 0 0 1-7.96-7.2h2.36l-3.2-4.8z" fill="#005EB8"/>
    <path stroke="#005EB8" d="M1 1.309h56v56H1z"/>
</svg>
