<svg width="32" height="32" viewBox="0 0 32 32" fill="none" xmlns="http://www.w3.org/2000/svg">
    <path d="M13.188 3.813a2.812 2.812 0 0 0-2.813 2.812v.938H3.812A2.813 2.813 0 0 0 1 10.374v15a2.812 2.812 0 0 0 2.813 2.813h24.375A2.812 2.812 0 0 0 31 25.375v-15a2.812 2.812 0 0 0-2.813-2.813h-6.562v-.937a2.812 2.812 0 0 0-2.813-2.813h-5.625zm0 1.874h5.624a.937.937 0 0 1 .938.938v.938h-7.5v-.938a.938.938 0 0 1 .938-.938zm3.536 12.964 12.401-3.305v10.029a.938.938 0 0 1-.938.938H3.813a.938.938 0 0 1-.937-.938V15.344l12.401 3.307c.475.127.974.127 1.448 0zM3.812 9.438h24.375a.937.937 0 0 1 .938.937v3.03L16.242 16.84a.938.938 0 0 1-.484 0L2.875 13.405v-3.03a.938.938 0 0 1 .938-.938z" fill="#000"/>
</svg>
