<svg width="29" height="28" viewBox="0 0 29 28" fill="none" xmlns="http://www.w3.org/2000/svg">
    <g clip-path="url(#2gmio354ca)">
        <path d="m.6 28 2.408-7.224a13.686 13.686 0 0 1-1.925-7.017C1.083 6.16 7.243 0 14.84 0c7.6 0 13.76 6.16 13.76 13.759 0 7.598-6.16 13.758-13.76 13.758-2.311 0-4.489-.573-6.4-1.58L.6 28z" fill="#27D138"/>
        <path d="M23.62 18.338c-.636-1.2-2.979-2.573-2.979-2.573-.53-.302-1.17-.336-1.472.203 0 0-.761.913-.955 1.044-.884.599-1.703.576-2.53-.251l-1.922-1.922-1.922-1.922c-.827-.827-.85-1.646-.251-2.53.131-.194 1.044-.955 1.044-.955.539-.303.505-.942.203-1.472 0 0-1.373-2.343-2.574-2.978a1.316 1.316 0 0 0-1.546.232l-.849.849c-2.692 2.692-1.366 5.732 1.326 8.424l2.46 2.46 2.461 2.461c2.693 2.693 5.732 4.018 8.424 1.326l.85-.849c.407-.41.502-1.036.231-1.547z" fill="#FDFEFF"/>
    </g>
    <defs>
        <clipPath id="2gmio354ca">
            <path fill="#fff" transform="translate(.6)" d="M0 0h28v28H0z"/>
        </clipPath>
    </defs>
</svg>
