<svg width="28" height="28" viewBox="0 0 28 28" fill="none" xmlns="http://www.w3.org/2000/svg">
    <g clip-path="url(#vrn852r2ba)">
        <rect width="28" height="28" rx="14" fill="#008FDC"/>
        <path d="M20.877 17.883c-.512-.967-2.4-2.073-2.4-2.073-.426-.244-.942-.271-1.185.163 0 0-.613.735-.77.841-.712.483-1.372.464-2.038-.202l-1.548-1.548-1.548-1.548c-.666-.666-.685-1.326-.202-2.039.105-.156.84-.77.84-.77.435-.243.408-.758.164-1.185 0 0-1.106-1.887-2.073-2.399a1.06 1.06 0 0 0-1.246.188l-.683.683c-2.17 2.17-1.101 4.617 1.067 6.786l1.983 1.982 1.982 1.982c2.169 2.17 4.617 3.237 6.786 1.068l.684-.683a1.06 1.06 0 0 0 .187-1.246z" fill="#FDFEFF"/>
    </g>
    <defs>
        <clipPath id="vrn852r2ba">
            <path fill="#fff" d="M0 0h28v28H0z"/>
        </clipPath>
    </defs>
</svg>
