<svg width="196" height="36" viewBox="0 0 196 36" fill="none" xmlns="http://www.w3.org/2000/svg">
    <path d="M25.062 27.162c0-3.173-2.265-5.482-7.819-7.967-4.728-2.118-9.346-4.666-9.346-10.427 0-2.628.799-6.235 4.578-8.768H0v36h9.955c9.741 0 15.107-3.022 15.107-8.838zM28.07 26.398a8.62 8.62 0 0 0-.542-2.4H36v2.4h-7.93zM23.532 19.198c.983.708 1.87 1.5 2.595 2.4h9.87v-2.4H23.532zM27.984 28.799H36v2.4h-8.67a10.52 10.52 0 0 0 .654-2.4zM36 2.399V0H25.672c-3.974 0-8.396.48-11.35 2.399H36zM23.271 36a11.06 11.06 0 0 0 2.659-2.402h10.068V36H23.271z" fill="#005EB8"/>
    <path d="M11.95 4.8a7.031 7.031 0 0 0-.875 2.4h24.923V4.8H11.95zM18.485 16.421c-1.578-.706-2.864-1.367-3.9-2.022h21.413v2.4H19.311c-.242-.114-.486-.224-.729-.334l-.097-.044zM10.986 9.6c.104.88.39 1.663.903 2.4H36V9.6H10.985zM77.913 7.641c.415-.425.952-.641 1.593-.641s1.179.216 1.59.636c.41.41.622.922.622 1.508 0 .595-.213 1.105-.623 1.518-.416.412-.948.62-1.59.62-.64 0-1.177-.212-1.591-.637a2.077 2.077 0 0 1-.617-1.5c0-.575.203-1.084.617-1.504zM88.921 26.236v-4.091h5.203v-2.09h-5.203V16.07c0-.152 0-.25.33-.25h5.968v-1.78H88.15c-1.2 0-2.012.318-2.405.94-.354.564-.538 1.332-.538 2.287v8.522c0 .963.234 1.679.69 2.134.453.453 1.113.686 1.95.686h7.373v-1.773h-5.57c-.606 0-.729-.234-.729-.599zM108.387 22.22c.032.043.059.082.087.125l.003-8.307h2.154v13.138c0 .603-.06 1.01-.177 1.264-.17.348-.541.522-1.123.522-.334 0-.634-.083-.893-.256a2.274 2.274 0 0 1-.629-.634 16.496 16.496 0 0 1-.325-.49 65.17 65.17 0 0 0-.172-.263l-1.146-1.666a1290.605 1290.605 0 0 1-3.911-5.898 111.795 111.795 0 0 0-1.504-2.263c0-.004-.005-.006-.008-.006v11.122h-2.148V16.473c0-.795.243-1.419.73-1.828.47-.401 1.087-.607 1.841-.607.573 0 1.072.13 1.482.387.395.242.757.591 1.086 1.046.783 1.095 1.687 2.39 2.676 3.85.985 1.45 1.642 2.411 1.977 2.898zM186.532 14.038v2.088h2.885v12.481h3.715V16.126H196v-2.088h-9.468zM132.883 22.145v4.091c0 .365.122.6.727.6h5.57v1.772h-7.371c-.844 0-1.498-.233-1.954-.686-.457-.455-.684-1.171-.684-2.134v-8.522c0-.955.18-1.723.535-2.287.394-.622 1.201-.94 2.404-.94h7.07v1.78h-5.969c-.328 0-.328.098-.328.25v3.987h5.203v2.089h-5.203zM121.707 27.127a4.04 4.04 0 0 1-.555.04c-1.426 0-2.418-.585-2.966-1.719-.586-1.221-.888-2.697-.888-4.39 0-.973.129-1.905.386-2.776.242-.846.655-1.549 1.215-2.088.538-.515 1.211-.77 2.06-.77 1.492 0 2.95 1.041 3.795 2.65l1.739-.832c-.816-1.24-1.457-2.05-2.6-2.754-.877-.542-1.987-.84-3.332-.84-1.455 0-2.761.35-3.901 1.058a7.238 7.238 0 0 0-2.639 2.779 7.8 7.8 0 0 0-.932 3.748c0 .046.004.088.01.132h-.006v.011l-.001.01-.001.004-.001.006-.001.006v.01c0 .1.008.2.016.3l.011.156c.006.049.008.095.01.144l.001.023.002.039a7.704 7.704 0 0 0 .892 3.085c.039.07.084.14.129.21.036.057.073.115.108.173l.019.03.013.02.014.023.001.002.013.021.013.021.022.034c.099.154.196.297.308.438.067.094.142.183.217.272l.002.002.116.139c.037.034.071.075.105.116.024.029.048.058.074.085l.004.005a6.985 6.985 0 0 0 .927.795c.08.06.161.12.24.176.05.032.097.067.143.1.057.042.113.083.171.118 1.14.701 2.446 1.061 3.901 1.061 1.345 0 2.455-.297 3.332-.838 1.143-.71 1.784-1.518 2.6-2.759l-1.739-.832c-.702 1.336-1.831 2.271-3.047 2.556zM69.663 27.167c.197 0 .383-.015.56-.04 1.214-.284 2.34-1.22 3.046-2.556l1.74.832c-.818 1.24-1.459 2.05-2.603 2.759-.872.541-1.984.838-3.338.838-1.448 0-2.76-.36-3.9-1.06a2.194 2.194 0 0 1-.15-.106c-.051-.038-.103-.077-.16-.113a17.138 17.138 0 0 1-.238-.176 4.714 4.714 0 0 1-.346-.258 7.867 7.867 0 0 1-.582-.537l-.005-.005a1.532 1.532 0 0 1-.095-.108c-.028-.033-.054-.065-.082-.093-.038-.047-.077-.092-.116-.137l-.001-.001c-.077-.09-.154-.18-.225-.275-.089-.115-.165-.231-.246-.354l-.055-.084-.063-.098-.034-.053a5.435 5.435 0 0 0-.104-.166c-.046-.072-.092-.144-.133-.217-.517-.949-.805-1.99-.894-3.085a9.474 9.474 0 0 0-.012-.206c-.002-.068-.008-.137-.014-.206-.007-.083-.014-.167-.014-.25 0-.008.002-.015.003-.022a.139.139 0 0 0 .002-.025h.004a.65.65 0 0 0-.004-.065c-.002-.022-.005-.044-.005-.067 0-1.344.311-2.605.934-3.748a7.257 7.257 0 0 1 2.634-2.779c1.14-.707 2.453-1.057 3.901-1.057 1.348 0 2.466.297 3.338.84 1.144.704 1.782 1.514 2.604 2.753l-1.742.832c-.852-1.609-2.306-2.65-3.798-2.65-.846 0-1.522.255-2.06.77-.56.54-.97 1.242-1.215 2.088a9.814 9.814 0 0 0-.387 2.777c0 1.692.302 3.168.888 4.389.55 1.134 1.545 1.719 2.967 1.719z" fill="#005EB8"/>
    <path fill-rule="evenodd" clip-rule="evenodd" d="M166.791 13.698c-4.272 0-7.733 3.414-7.733 7.632s3.461 7.631 7.733 7.631c4.268 0 7.731-3.413 7.731-7.63 0-4.219-3.463-7.633-7.731-7.633zm-.001 13.419c-1.959 0-3.549-2.587-3.549-5.787 0-3.197 1.59-5.787 3.549-5.787 1.956 0 3.549 2.59 3.549 5.787 0 3.2-1.593 5.787-3.549 5.787z" fill="#005EB8"/>
    <path d="M180.368 10.874v3.164h3.302v2.088h-3.302v12.481h-3.712V11.008c0-3.697 1.025-4.428 7.014-3.812v2.088h-1.579c-.272 0-.742.016-.927.037-.414.056-.726.341-.763.732a8.515 8.515 0 0 0-.033.821zM58.198 25.914c.769-1.133 1.16-2.256 1.16-3.34 0-1.536-.551-2.932-1.552-3.932-.824-.82-2.118-1.612-3.965-2.424-1.527-.673-2.312-1.04-2.998-1.408-1.06-.537-1.724-1.595-1.724-2.759 0-1.452 1.019-2.696 2.473-3.029.3-.068.63-.135.999-.135 1.899 0 3.275.934 4.202 2.855l.062.127 1.574-1.027-.046-.09a5.967 5.967 0 0 0-1.567-1.979 7.45 7.45 0 0 0-2.283-1.298 7.567 7.567 0 0 0-2.584-.45c-1.279 0-2.459.272-3.504.816-1.12.578-1.968 1.321-2.517 2.2-.615.984-.928 2.019-.928 3.084 0 1.613.478 2.914 1.381 3.761.766.717 1.976 1.412 3.803 2.18 1.658.696 2.364 1.013 3.232 1.567.144.092.272.18.427.314.826.669 1.248 1.548 1.248 2.615 0 1.931-1.66 3.503-3.703 3.503h-.002l-.017-.003-.02.003h-.038c-.962 0-1.774-.212-2.414-.63-.648-.421-1.266-1.076-1.837-1.948l-.073-.108-1.658 1.183.057.091C46.701 27.83 49.035 29 52.186 29a7.585 7.585 0 0 0 3.422-.81 6.696 6.696 0 0 0 2.59-2.276zM156.778 22.575c0 1.083-.393 2.206-1.161 3.339a6.712 6.712 0 0 1-2.591 2.276 7.581 7.581 0 0 1-3.421.81c-3.151 0-5.488-1.171-6.798-3.347l-.058-.091 1.655-1.183.073.108c.571.872 1.19 1.527 1.837 1.947.64.419 1.453.632 2.417.632h.018l.02-.001.019-.003.015.003h.005c2.042 0 3.702-1.572 3.702-3.503 0-1.067-.42-1.946-1.25-2.615a3.475 3.475 0 0 0-.424-.314c-.868-.554-1.577-.871-3.231-1.567-1.832-.768-3.041-1.463-3.807-2.18-.902-.847-1.381-2.148-1.381-3.761 0-1.065.313-2.1.928-3.085.551-.878 1.399-1.62 2.517-2.2 1.049-.543 2.227-.815 3.509-.815.882 0 1.753.15 2.58.45a7.486 7.486 0 0 1 2.283 1.298 5.965 5.965 0 0 1 1.567 1.979l.044.09-1.571 1.027-.061-.127c-.929-1.92-2.304-2.855-4.204-2.855-.369 0-.696.067-.995.135-1.457.333-2.476 1.577-2.476 3.029 0 1.164.661 2.222 1.724 2.759.685.369 1.47.735 2.998 1.408 1.846.812 3.145 1.604 3.962 2.424 1.004 1 1.556 2.396 1.556 3.933zM81.362 28.608h-3.714v-14.57h3.714v14.57z" fill="#005EB8"/>
</svg>
