<svg width="266" height="173" viewBox="0 0 266 173" fill="none" xmlns="http://www.w3.org/2000/svg">
<path d="M232.834 74.5833C234.061 76.1988 233.01 78.5836 232.561 80.3273C232.113 82.0711 231.644 83.9174 231.18 85.738C231.186 85.8454 231.225 85.9483 231.293 86.032C231.361 86.1156 231.454 86.1759 231.559 86.2043C231.663 86.2326 231.773 86.2276 231.875 86.19C231.976 86.1523 232.063 86.0839 232.123 85.9944C232.7 83.7413 233.276 81.4898 233.85 79.2401C234.283 77.5425 234.84 75.6501 233.68 74.1115C233.304 73.5986 232.458 74.1115 232.834 74.6243V74.5833Z" fill="#ABC3D8"/>
<path d="M0.827935 166.061C-0.203068 167.359 1.36922 171.456 3.15285 171.461L198.012 173C199.332 173 204.199 172.364 205.425 171.846C219.38 169.154 232.577 167.061 237.778 165.789C238.373 165.643 238.918 165.342 239.357 164.917C239.796 164.491 240.112 163.957 240.273 163.368C246.825 139.644 261.228 73.1051 264.796 57.9706L265.275 55.9192C266.198 51.8984 264.095 49.7649 262.357 48.4263C261.434 47.7101 260.306 47.3058 259.135 47.2724L83.6124 158.43L0.827935 166.061Z" fill="#E5EDF4"/>
<path d="M261.575 50.7499C259.585 59.8583 257.593 68.9684 255.6 78.0802C250.156 102.954 243.873 127.828 237.821 152.645C237.687 153.158 237.558 153.696 237.434 154.219C237.058 155.758 236.697 157.266 236.331 158.799C236.281 159.014 236.16 159.205 235.986 159.341C235.813 159.477 235.598 159.55 235.377 159.548L50.1367 159.143L51.8945 151.604L75.5561 50.3396C75.8221 49.4445 76.3697 48.658 77.1186 48.0958C77.8675 47.5335 78.778 47.2252 79.7161 47.2163L258.879 47.6112C260.771 47.6163 261.982 49.037 261.575 50.7499Z" fill="white"/>
<path d="M235.38 159.816L49.7998 159.411L51.635 151.549L75.2966 50.2795C75.5789 49.3284 76.1593 48.4921 76.9531 47.8924C77.7469 47.2927 78.7126 46.961 79.7092 46.9459L258.887 47.3408C259.356 47.3243 259.822 47.4141 260.251 47.6033C260.68 47.7926 261.06 48.0764 261.362 48.4332C261.619 48.7663 261.795 49.1535 261.878 49.5651C261.962 49.9767 261.949 50.4018 261.841 50.8077C260.81 55.5944 259.767 60.3691 258.712 65.1319L255.866 78.138C251.552 97.8626 246.634 117.89 241.876 137.26C240.608 142.41 239.345 147.559 238.087 152.708C237.953 153.221 237.824 153.759 237.7 154.282C237.324 155.821 236.963 157.329 236.602 158.862C236.537 159.135 236.381 159.378 236.159 159.551C235.937 159.725 235.662 159.818 235.38 159.816ZM50.5009 158.872L235.406 159.278C235.565 159.278 235.719 159.225 235.844 159.128C235.968 159.03 236.056 158.893 236.092 158.739C236.458 157.2 236.819 155.662 237.195 154.154C237.319 153.641 237.448 153.128 237.582 152.58C238.833 147.431 240.094 142.281 241.365 137.132C246.098 117.762 251.031 97.76 255.33 78.0252L258.176 65.019C259.207 60.2323 260.25 55.4576 261.305 50.6949C261.397 50.3675 261.411 50.0236 261.346 49.6899C261.282 49.3562 261.141 49.0419 260.934 48.7716C260.68 48.4776 260.363 48.2445 260.006 48.09C259.649 47.9354 259.261 47.8634 258.872 47.8793L79.7144 47.4998C78.8379 47.5103 77.9877 47.7983 77.2869 48.3221C76.5861 48.8459 76.0714 49.5782 75.8173 50.4128L50.5009 158.872Z" fill="#E5EDF4"/>
<path d="M258.774 62.7919L261.872 49.6165L260.557 48.0728L258.877 47.6061L79.714 47.2163L78.1057 47.5445L76.2705 48.9087L75.1055 52.2423L72.7393 62.3816L258.774 62.7919Z" fill="#E5EDF4"/>
<path d="M167.629 46.4738C167.595 46.351 167.53 46.239 167.44 46.149C167.349 46.059 167.237 45.9942 167.113 45.961C165.623 45.52 163.566 46.4379 162.319 47.1815C162.224 47.2378 162.143 47.3148 162.082 47.4067C162.022 47.4986 161.983 47.603 161.968 47.7121C161.954 47.8211 161.964 47.932 161.999 48.0364C162.034 48.1408 162.092 48.236 162.17 48.3148C162.191 48.3763 162.221 48.4348 162.257 48.4891C163.288 50.0275 164.108 51.6838 165.623 52.853C165.796 52.9511 166.001 52.9781 166.193 52.9283C166.386 52.8785 166.551 52.7558 166.654 52.5863C167.157 51.737 167.456 50.7845 167.531 49.8019C167.721 48.7026 167.754 47.5822 167.629 46.4738Z" fill="#DAE9F7"/>
<path d="M183.114 46.8463C181.807 45.8006 180.268 45.0799 178.624 44.7439C178.497 44.7112 178.363 44.7122 178.236 44.7468C178.109 44.7813 177.993 44.8482 177.9 44.9409C177.807 45.0335 177.739 45.1488 177.705 45.2752C177.67 45.4016 177.669 45.5349 177.702 45.6618C178.026 47.2412 178.3 48.8309 178.501 50.4257C178.624 51.3897 178.789 52.4769 179.985 52.5384C182.099 52.6615 183.547 47.2207 183.114 46.8463Z" fill="#DAE9F7"/>
<path d="M237.821 152.634C237.687 153.147 237.558 153.685 237.434 154.209C237.058 155.747 236.697 157.255 236.331 158.788C236.281 159.002 236.16 159.193 235.986 159.329C235.813 159.465 235.598 159.539 235.377 159.537L50.1367 159.131L51.8945 151.593L237.821 152.634Z" fill="#F0F9FF"/>
<path d="M235.381 160.036L50.1352 159.625C50.0616 159.626 49.9889 159.61 49.9226 159.578C49.8563 159.546 49.798 159.5 49.7523 159.443C49.7066 159.385 49.6747 159.319 49.6588 159.247C49.643 159.176 49.6437 159.102 49.661 159.03L51.4188 151.497L75.0802 50.2323C75.3652 49.2258 75.9724 48.3391 76.8097 47.707C77.647 47.0748 78.6687 46.7316 79.7198 46.7295L258.898 47.1244C259.399 47.1091 259.897 47.2067 260.355 47.4101C260.813 47.6135 261.219 47.9173 261.542 48.2988C261.82 48.6586 262.01 49.0768 262.1 49.5214C262.189 49.9659 262.175 50.425 262.058 50.8631C261.027 55.6498 259.984 60.4228 258.929 65.1822L256.083 78.1883C251.768 97.9129 246.851 117.945 242.087 137.316C240.823 142.465 239.561 147.614 238.304 152.763C238.17 153.276 238.041 153.789 237.917 154.338C237.541 155.876 237.18 157.384 236.819 158.912C236.741 159.233 236.557 159.519 236.296 159.723C236.035 159.926 235.712 160.037 235.381 160.036ZM50.7486 158.656L235.381 159.061C235.49 159.063 235.597 159.027 235.683 158.96C235.77 158.893 235.83 158.798 235.855 158.692C236.221 157.153 236.582 155.615 236.958 154.102C237.082 153.589 237.211 153.05 237.345 152.527C238.599 147.399 239.86 142.25 241.129 137.08C245.887 117.714 250.81 97.6872 255.119 77.978L257.965 64.9719C258.996 60.1852 260.039 55.4105 261.094 50.6477C261.178 50.3515 261.192 50.0399 261.135 49.7373C261.078 49.4347 260.951 49.1495 260.764 48.904C260.532 48.6356 260.241 48.4232 259.914 48.2829C259.587 48.1425 259.233 48.0778 258.877 48.0937L79.7146 47.7039C78.8855 47.7098 78.0801 47.9799 77.4167 48.4747C76.7533 48.9694 76.2669 49.6628 76.0288 50.4529L50.7486 158.656Z" fill="#E5EDF4"/>
<path d="M172.804 40.4162C170.922 35.5697 171.458 30.8924 171.361 25.8356C171.304 22.6867 170.783 19.4095 168.783 16.8503C165.69 12.8808 159.324 12.1679 156.834 17.035C156.709 17.0511 156.589 17.0916 156.48 17.1541C156.371 17.2166 156.276 17.2998 156.2 17.3991C153.571 20.5993 153.421 24.7022 153.622 28.682C153.767 31.1866 154.251 33.6604 155.06 36.0364C155.432 37.1493 156.158 38.2469 155.968 39.4572C155.885 40.006 154.937 41.0625 154.664 41.6112C151.256 49.14 155.23 57.7868 161.788 62.0076C165.479 65.3412 171.067 64.0847 173.974 60.1614C178.861 53.6532 175.335 46.9296 172.804 40.4162Z" fill="#B86142"/>
<path d="M235.191 85.7112C234.474 91.3527 223.334 140.11 223.283 140.29C222.741 142.075 222.283 142.095 221.267 142.069L96.4127 141.403C96.2364 141.393 96.0642 141.346 95.9072 141.266C95.7502 141.185 95.6118 141.073 95.5011 140.937C95.3903 140.8 95.3097 140.641 95.2642 140.472C95.2188 140.302 95.2096 140.125 95.2373 139.951L95.4023 138.813L107.207 84.8856C107.258 84.5896 107.41 84.3205 107.639 84.1248C107.868 83.929 108.158 83.819 108.46 83.8137L234.242 84.6137C234.381 84.6119 234.518 84.6403 234.645 84.697C234.771 84.7538 234.884 84.8374 234.974 84.9421C235.065 85.0467 235.131 85.1698 235.168 85.3027C235.206 85.4356 235.213 85.5751 235.191 85.7112Z" fill="#F0F9FF"/>
<path d="M237.983 73.1722C237.267 78.8137 236.437 79.8394 236.401 80.0087C235.885 81.7934 235.401 81.8139 234.385 81.7883L109.531 81.1216C109.355 81.1116 109.182 81.0649 109.025 80.9846C108.868 80.9043 108.73 80.7922 108.619 80.6554C108.509 80.5187 108.428 80.3603 108.382 80.1906C108.337 80.0209 108.328 79.8436 108.355 79.6702L108.52 78.5316L110.005 72.3465C110.056 72.051 110.21 71.7825 110.438 71.5869C110.667 71.3914 110.956 71.281 111.258 71.2747L237.04 72.0747C237.178 72.0736 237.315 72.1026 237.441 72.1597C237.567 72.2168 237.679 72.3005 237.768 72.4051C237.858 72.5096 237.924 72.6325 237.961 72.765C237.998 72.8975 238.006 73.0365 237.983 73.1722Z" fill="#F0F9FF"/>
<path d="M100.242 88.0852C100.496 88.084 100.741 87.9955 100.937 87.8347C101.132 87.6739 101.266 87.4508 101.315 87.2032C101.608 85.7058 101.83 84.593 101.887 83.993C101.908 83.8575 101.9 83.7188 101.863 83.5867C101.825 83.4546 101.759 83.3321 101.67 83.2278C101.58 83.1235 101.468 83.0397 101.343 82.9824C101.218 82.925 101.081 82.8955 100.943 82.8957L84.0143 82.7418C83.7117 82.746 83.4202 82.8555 83.1904 83.0513C82.9606 83.2471 82.8071 83.5168 82.7565 83.8136L82.1069 86.7673C82.0723 86.9259 82.0738 87.0902 82.1113 87.2481C82.1489 87.406 82.2214 87.5536 82.3238 87.68C82.4261 87.8064 82.5556 87.9084 82.7027 87.9785C82.8499 88.0486 83.0108 88.0851 83.1739 88.0852H100.242Z" fill="#F0F9FF"/>
<path d="M100.062 93.3277C100.232 92.5226 100.392 91.7585 100.541 91.0304C100.583 90.8351 100.58 90.6332 100.533 90.4392C100.486 90.2452 100.396 90.0642 100.269 89.9093C100.143 89.7545 99.9827 89.6297 99.8015 89.5442C99.6203 89.4587 99.4222 89.4145 99.2216 89.415H82.6173C82.3085 89.4152 82.009 89.5207 81.7689 89.7139C81.5287 89.907 81.3624 90.1762 81.2976 90.4765L80.7821 92.7688C80.7398 92.9646 80.7421 93.1674 80.7887 93.3622C80.8354 93.5571 80.9253 93.7391 81.0518 93.8949C81.1783 94.0507 81.3383 94.1765 81.5199 94.2629C81.7016 94.3493 81.9004 94.3942 82.1018 94.3943H98.7267C99.0389 94.3974 99.3425 94.2929 99.5859 94.0984C99.8293 93.9039 99.9974 93.6316 100.062 93.3277Z" fill="#F0F9FF"/>
<path d="M98.7317 99.5491C98.9276 98.6312 99.1234 97.7389 99.309 96.8672C99.3381 96.7291 99.3359 96.5863 99.3025 96.4491C99.2692 96.312 99.2055 96.184 99.1161 96.0744C99.0268 95.9649 98.914 95.8766 98.7859 95.8159C98.6579 95.7552 98.5178 95.7237 98.376 95.7236H80.9159C80.6984 95.7237 80.4875 95.7981 80.3186 95.9344C80.1497 96.0707 80.0329 96.2606 79.988 96.4723L79.4055 99.1491C79.3746 99.2872 79.3753 99.4305 79.4075 99.5683C79.4398 99.7061 79.5028 99.835 79.5919 99.9453C79.681 100.056 79.7939 100.145 79.9223 100.206C80.0506 100.267 80.1912 100.298 80.3334 100.298H97.7934C98.0122 100.298 98.2246 100.224 98.3953 100.088C98.5659 99.9518 98.6846 99.7616 98.7317 99.5491Z" fill="#F0F9FF"/>
<path d="M97.4837 105.251C97.659 104.466 97.8291 103.713 97.9992 102.923C98.0337 102.768 98.0332 102.608 97.9976 102.454C97.962 102.299 97.8923 102.155 97.7936 102.031C97.6949 101.906 97.5696 101.806 97.4268 101.736C97.2841 101.665 97.1274 101.628 96.9682 101.626H79.766C79.5237 101.631 79.2904 101.718 79.1035 101.871C78.9166 102.025 78.7869 102.236 78.735 102.472L78.2195 104.8C78.186 104.954 78.1873 105.114 78.2233 105.268C78.2592 105.422 78.329 105.566 78.4275 105.69C78.5261 105.814 78.6509 105.915 78.7931 105.985C78.9354 106.056 79.0916 106.094 79.2505 106.097H96.4527C96.695 106.091 96.9283 106.005 97.1152 105.851C97.3022 105.698 97.4319 105.487 97.4837 105.251Z" fill="#F0F9FF"/>
<path d="M96.1806 111.186C96.3662 110.335 96.5568 109.489 96.7424 108.648C96.771 108.501 96.7671 108.35 96.7308 108.205C96.6946 108.06 96.627 107.925 96.5327 107.809C96.4385 107.692 96.3199 107.598 96.1851 107.532C96.0504 107.466 95.9028 107.43 95.7527 107.427H78.4215C78.1925 107.431 77.9715 107.511 77.7932 107.654C77.6149 107.797 77.4895 107.995 77.4369 108.217L76.8801 110.781C76.8516 110.928 76.8556 111.079 76.8918 111.224C76.9281 111.368 76.9957 111.504 77.0899 111.62C77.1842 111.736 77.3028 111.831 77.4375 111.896C77.5723 111.962 77.7199 111.998 77.87 112.001H95.1908C95.4242 111.997 95.6492 111.914 95.829 111.766C96.0088 111.618 96.1328 111.413 96.1806 111.186Z" fill="#F0F9FF"/>
<path d="M94.7679 117.544C94.9741 116.611 95.1838 115.671 95.3968 114.724C95.4346 114.553 95.4334 114.375 95.3932 114.205C95.353 114.035 95.2747 113.875 95.1644 113.739C95.054 113.603 94.9144 113.493 94.7556 113.417C94.5969 113.342 94.4232 113.303 94.2473 113.303H77.2769C77.0088 113.303 76.7486 113.394 76.5395 113.561C76.3304 113.727 76.1849 113.961 76.1273 114.221L75.5139 117.041C75.476 117.212 75.4772 117.389 75.5174 117.559C75.5577 117.729 75.6358 117.888 75.7462 118.024C75.8567 118.16 75.9965 118.27 76.1553 118.345C76.314 118.419 76.4878 118.458 76.6635 118.457H93.6183C93.8859 118.458 94.1461 118.369 94.3553 118.202C94.5645 118.036 94.7102 117.804 94.7679 117.544Z" fill="#F0F9FF"/>
<path d="M193.543 39.1895C192.77 38.3245 191.963 37.4885 191.121 36.6816C189.966 35.6322 189.094 34.3115 188.584 32.8403C187.136 28.2707 188.631 23.3473 187.038 18.7367C186.981 18.5773 186.89 18.4324 186.77 18.312C186.651 18.1917 186.507 18.0988 186.347 18.0401C186.188 17.9814 186.018 17.9583 185.848 17.9723C185.679 17.9863 185.515 18.0371 185.368 18.1212C182.228 17.0955 177.635 17.0699 176.666 20.865C175.779 24.3371 176.15 28.5579 175.903 32.148C175.656 35.738 175.424 39.3793 175.429 43.0052C175.429 47.8876 175.357 54.4727 179.037 58.232C181.001 60.2321 183.795 61.2681 186.285 62.458L195.982 67.0737C196.08 67.2424 196.22 67.3834 196.389 67.4834C196.557 67.5834 196.748 67.6391 196.944 67.6453C197.14 67.6515 197.334 67.6079 197.509 67.5186C197.683 67.4294 197.832 67.2974 197.941 67.1352C200.784 62.2198 201.564 56.3872 200.111 50.9032C198.997 46.4721 196.569 42.5795 193.543 39.1895Z" fill="#B86142"/>
<path d="M181.718 32.9131C182.331 35.2107 182.986 37.6007 184.501 39.4983C186.213 41.6369 188.698 42.9447 190.337 45.1961C192.051 47.5778 193.069 50.384 193.281 53.3053C193.493 56.2267 192.89 59.1494 191.538 61.7512C191.255 62.3051 192.095 62.7769 192.378 62.2641C193.649 59.8401 194.308 57.1453 194.3 54.4116C194.292 51.678 193.616 48.9871 192.332 46.5706C191.012 44.1242 189.141 42.3549 187.017 40.6112C184.44 38.5084 183.486 35.7851 182.661 32.6772C182.601 32.5875 182.514 32.519 182.412 32.4815C182.31 32.444 182.199 32.4394 182.094 32.4684C181.99 32.4974 181.897 32.5585 181.83 32.6429C181.762 32.7274 181.723 32.8309 181.718 32.9388V32.9131Z" fill="#914429"/>
<path d="M50.0531 158.829L1.50315 165.497C1.09591 165.609 0.704102 166.235 0.704102 166.235L196.641 167.415C197.718 167.422 198.78 167.167 199.734 166.671L236.18 159.45L50.0531 158.829Z" fill="#E5EDF4"/>
<path d="M165.747 46.3248C164.708 46.356 163.683 46.5713 162.721 46.9607C162.438 47.0477 162.198 47.2388 162.052 47.4951C161.905 47.7513 161.862 48.0535 161.932 48.3401C162.015 48.6027 162.186 48.8291 162.417 48.9811C162.39 49.2047 162.445 49.4303 162.571 49.617C162.832 50.0367 163.246 50.3399 163.726 50.4631C164.207 50.5864 164.716 50.5202 165.149 50.2785C165.917 49.8067 166.314 48.7811 166.695 48.0171C166.79 47.8475 166.84 47.6566 166.84 47.4624C166.84 47.2682 166.791 47.0773 166.696 46.9077C166.601 46.7381 166.463 46.5956 166.297 46.4935C166.131 46.3915 165.942 46.3334 165.747 46.3248Z" fill="#DAE9F7"/>
<path d="M182.837 48.2068C182.966 48.091 183.064 47.9461 183.124 47.7843C183.185 47.6226 183.205 47.4487 183.183 47.2776C183.161 47.1064 183.098 46.943 182.999 46.8012C182.901 46.6595 182.769 46.5435 182.615 46.4633C181.257 45.5882 179.66 45.1529 178.043 45.2172C176.981 45.2736 176.434 46.7556 177.465 47.3042C178.043 47.5563 178.598 47.8565 179.125 48.2016C179.326 48.3606 179.378 48.0632 179.192 48.458C179.084 48.6939 179.033 48.9708 178.909 49.1862C178.259 50.4733 180.203 51.6118 180.858 50.3195C180.899 50.2375 180.94 50.1451 180.981 50.0528C181.406 49.8962 181.792 49.6502 182.112 49.3316C182.432 49.013 182.68 48.6293 182.837 48.2068Z" fill="#DAE9F7"/>
<path d="M161.932 53.5715C161.355 53.7305 158.437 53.9203 157.845 54.0485C157.712 54.0789 157.587 54.1379 157.48 54.2213C157.373 54.3047 157.285 54.4105 157.223 54.5312C157.161 54.6519 157.127 54.7847 157.122 54.9201C157.117 55.0556 157.142 55.1904 157.195 55.3152C159.587 61.0541 166.99 64.239 173.567 62.5363C177.552 61.5106 183.764 61.1054 186.996 58.495C187.589 58.018 187.63 58.2078 187.058 57.7052C185.45 56.3102 182.233 53.7972 181.692 51.6637C180.485 46.9043 180.145 39.273 179.769 34.3905C179.722 33.8469 178.954 33.3648 178.949 33.3648C177.64 29.4261 174.248 30.8416 171.48 32.852C168.026 35.3547 164.747 38.9345 163.02 42.8117C162.909 43.057 162.885 43.3325 162.951 43.5933C163.018 43.8541 163.171 44.0848 163.386 44.2477C163.745 45.8727 163.998 47.519 164.144 49.1763C164.314 51.2483 164.134 52.9766 161.932 53.5715Z" fill="#FAC1B0"/>
<path d="M235.412 160.62C227.876 162.486 220.272 164.051 212.653 165.563C209.014 166.287 205.369 166.999 201.73 167.733C198.09 168.466 194.157 168.082 190.44 168.066C175.377 168.015 160.314 167.929 145.251 167.81C114.945 167.584 84.6437 167.297 54.3374 167.056C37.4255 166.933 20.5136 166.847 3.60174 166.799C3.50045 166.834 3.41258 166.9 3.35041 166.987C3.28823 167.073 3.25488 167.177 3.25488 167.284C3.25488 167.391 3.28823 167.495 3.35041 167.582C3.41258 167.668 3.50045 167.734 3.60174 167.769C34.0163 167.835 64.3845 168.092 94.7784 168.359C125.172 168.625 155.463 168.902 185.806 169.02C189.93 169.041 194.04 169.054 198.136 169.061C202.204 169.061 206.333 167.805 210.313 167.01C218.798 165.333 227.278 163.63 235.675 161.553C235.766 161.493 235.834 161.406 235.872 161.305C235.91 161.204 235.914 161.093 235.885 160.989C235.856 160.885 235.795 160.793 235.71 160.726C235.625 160.658 235.521 160.619 235.412 160.614V160.62Z" fill="#ABC3D8"/>
<path d="M150.716 152.205L221.076 152.523C216.901 140.373 211.653 129.377 206.591 121.551C206.673 121.32 206.669 121.067 206.581 120.838C206.492 120.61 206.323 120.421 206.106 120.305C197.606 115.407 187.1 118.704 178.176 120.535C172.63 121.669 167.057 121.561 161.515 122.469C158.355 122.982 155.582 124.202 153.571 126.572C153.403 126.423 153.197 126.323 152.976 126.281C152.754 126.24 152.526 126.259 152.314 126.336C152.103 126.413 151.916 126.546 151.775 126.72C151.633 126.895 151.541 127.104 151.509 127.326C150.391 135.557 150.046 143.874 150.478 152.169C150.557 152.185 150.636 152.197 150.716 152.205Z" fill="#C6DCF0"/>
<path d="M213.4 100.21C213.297 97.3229 213.122 94.4047 212.916 91.6147C212.266 83.1064 211.235 75.7469 210.498 73.7929C208.952 69.69 205.343 66.1 201.796 63.8793C200.033 62.792 198.049 61.5611 195.961 60.2893C193.956 59.0789 191.837 57.8634 189.811 56.7454C187.785 55.6274 185.739 54.6221 183.898 53.8426C183.64 53.7298 182.996 53.0118 182.769 53.54C180.48 58.9097 177.284 59.1199 172.928 59.1302C170.928 59.1302 162.5 52.6887 162.288 52.6271C162.19 52.5758 160.453 52.7861 160.329 52.781C158.231 52.6579 156.092 52.5246 153.942 52.4169C152.947 52.3758 151.947 52.3348 150.958 52.3092C149.968 52.2835 149.066 52.2527 148.127 52.2527C145.787 52.2527 143.488 52.2989 141.194 52.4938C135.694 52.9656 130.301 55.1965 125.213 57.2377C125.108 57.282 125.013 57.3476 124.935 57.4304C124.857 57.5132 124.797 57.6113 124.759 57.7185C124.721 57.8257 124.706 57.9396 124.715 58.0529C124.724 58.1661 124.757 58.2763 124.811 58.3763C124.774 58.4566 124.754 58.5441 124.754 58.6327C124.754 58.7213 124.774 58.8089 124.811 58.8892C127.275 65.0435 132.487 74.7878 135.539 78.8907C135.869 79.3369 136.178 79.7113 136.451 80.0139C137.029 80.6447 138.843 79.6138 138.513 80.4087C129.894 101.4 149.158 132.464 149.437 132.767C153.159 136.808 159.654 137.336 164.706 137.711C173.301 138.383 181.949 137.64 190.301 135.51C197.224 133.679 209.086 128.725 211.869 121.366C213.426 117.319 213.715 108.888 213.4 100.21Z" fill="#DAE9F7"/>
<path d="M151.844 52.4833C151.555 52.4269 151.262 52.3705 150.958 52.3295C150.107 52.191 149.194 52.068 148.225 51.9654C139.745 51.0679 127.214 51.5654 117.811 52.8013C107.083 54.2168 93.4121 55.4938 82.7566 57.4889C82.4632 57.543 82.2015 57.7062 82.0245 57.9453C81.905 58.02 81.8017 58.1176 81.7205 58.2325C77.7511 63.715 77.019 75.4903 82.9318 79.6598C83.504 80.065 94.5203 81.8908 99.7063 82.0344C107.99 82.2703 117.708 82.7626 125.93 81.6497C128.966 81.2445 132.43 80.7368 135.111 79.1726C135.24 79.1008 135.369 79.0187 135.492 78.9367C137.611 77.5109 138.673 75.1671 139.817 72.9516C142.457 67.8589 152.86 59.1044 153.705 54.822C153.978 53.6527 153.478 52.7911 151.844 52.4833Z" fill="#DAE9F7"/>
<path d="M98.0468 55.6532C92.866 50.6836 73.2562 46.9345 67.328 44.7703C62.7658 43.0983 57.75 40.9084 52.9507 42.3034C50.5123 40.2534 47.8714 38.4544 45.0686 36.9338C45.0156 36.9056 44.9605 36.8816 44.9037 36.862C44.2696 36.2978 44.4604 36.862 44.2388 37.9851C42.7954 45.2729 37.2537 49.3604 37.7279 49.8578C38.7958 50.9949 39.9413 52.0573 41.1561 53.0376C41.3634 53.1692 41.5371 53.3472 41.6633 53.5573C41.7894 53.7674 41.8646 54.0038 41.8829 54.2479C41.1921 64.1102 52.5795 70.6081 61.7142 74.3777C72.2923 78.737 87.0099 82.3578 104.166 82.1731C105.233 82.1577 101.475 58.9457 98.0468 55.6532Z" fill="#DAE9F7"/>
<path d="M181.744 32.7909C184.352 27.5854 186.492 21.785 182.45 16.8923C178.063 11.5637 169.939 11.138 164.176 14.3844C157.062 18.3898 155.098 26.8982 153.958 34.3346C153.546 37.022 152.855 40.6018 154.582 42.9609C156.603 47.3305 162.681 47.0638 166.666 46.433C172.929 45.4688 176.46 43.1712 179.398 37.3349C180.115 35.8937 180.95 34.3705 181.744 32.7909Z" fill="#FAC1B0"/>
<path d="M82.6635 71.8632C86.0143 70.9761 89.1434 69.0787 92.2416 67.566C92.8086 67.2942 92.3138 66.4532 91.7519 66.7301C88.7311 68.1967 85.6637 70.0633 82.4006 70.9248C82.3104 70.9849 82.2416 71.0717 82.2039 71.1729C82.1662 71.2742 82.1617 71.3847 82.1908 71.4887C82.22 71.5927 82.2814 71.6848 82.3663 71.7521C82.4512 71.8194 82.5551 71.8583 82.6635 71.8632Z" fill="#B7CFDF"/>
<path d="M149.477 6.62342C147.833 15.7575 138.652 61.8584 138.652 61.8892C137.997 65.192 136.698 66.828 133.182 66.828L31.3089 66.5973C27.6179 66.5973 27.6179 65.4485 28.0973 63.1201L28.5715 60.9148L39.4693 7.91584C39.6601 6.96192 40.057 4.64893 43.3098 4.64893L148.091 4.88482C148.306 4.8816 148.52 4.92768 148.714 5.01952C148.909 5.11135 149.08 5.24649 149.214 5.41449C149.348 5.58249 149.442 5.77887 149.487 5.98848C149.533 6.19809 149.529 6.41532 149.477 6.62342Z" fill="#B9DEF7"/>
<path d="M61.0957 22.077L35.7742 39.427L32.1657 41.8939C31.6502 42.2426 32.1657 43.0888 32.6812 42.7298L57.9975 25.3798C59.1969 24.5592 60.3997 23.7369 61.606 22.9129C62.1215 22.5642 61.637 21.718 61.1163 22.077H61.0957Z" fill="#FFFDF7"/>
<path d="M118.769 25.3595C125.259 31.2214 131.739 37.1193 138.404 42.7967C139.116 43.4019 140.405 44.9661 141.425 45.0533C142.054 45.1097 142.049 44.1404 141.425 44.084C141.745 44.084 141.528 44.084 141.358 43.966C141.188 43.848 140.992 43.6839 140.812 43.5403C140.203 43.0583 139.616 42.5505 139.023 42.0479C137.198 40.5093 135.414 38.9041 133.595 37.3142C129.742 33.9122 125.912 30.4932 122.104 27.057L119.46 24.6722C118.996 24.2517 118.305 24.9338 118.769 25.3595Z" fill="#FFFDF7"/>
<path d="M147.416 5.8857C135.209 14.0915 122.837 22.0682 110.3 29.8158C105.805 32.5955 101.278 35.3341 96.7059 37.9856C94.6989 39.1447 92.6833 40.2832 90.6591 41.4013C88.8342 42.427 85.7877 42.827 84.0556 41.4474C76.5963 35.4931 69.5649 28.9541 62.4922 22.5588C55.9917 16.6814 49.5583 10.7271 43.0681 4.83435C42.6093 4.4138 41.9134 5.10105 42.3825 5.52159C55.4917 17.4302 68.3638 29.626 81.9782 40.9858C82.6213 41.5888 83.3108 42.1409 84.0402 42.6373C84.9108 43.0686 85.8782 43.2699 86.8496 43.2219C89.2622 43.2578 90.8912 42.4065 92.9377 41.2628C97.3659 38.7857 101.737 36.1957 106.073 33.5699C115.146 28.0618 124.115 22.3588 132.992 16.5737C137.986 13.329 142.96 10.0484 147.916 6.73194C148.431 6.38832 147.947 5.5421 147.4 5.89597L147.416 5.8857Z" fill="#FFFDF7"/>
<path d="M37.6554 41.2222C39.4442 39.9503 38.1709 37.1603 36.7585 35.9499C34.3975 33.8985 30.7993 32.2779 27.6186 32.9241C24.2473 33.6113 23.9277 36.3859 24.9123 39.1759C24.3982 39.4236 23.9733 39.8229 23.6956 40.3195C22.7471 42.0786 23.6492 43.9813 24.9844 45.3763C24.764 45.5668 24.5684 45.7839 24.4019 46.0225C23.0152 48.0278 24.639 50.1254 26.5412 50.9562C26.6128 50.9809 26.6873 50.9964 26.7628 51.0024C26.4493 51.3639 26.2408 51.8036 26.1597 52.2743C25.8453 53.9667 27.4897 55.8951 29.0671 56.3772C29.1819 56.4281 29.3087 56.4458 29.4331 56.4284C29.613 56.4194 29.7828 56.3424 29.9074 56.213C31.0261 55.5258 32.1756 54.8745 33.253 54.1308C33.6342 53.9159 33.9639 53.6211 34.2194 53.2669C34.4748 52.9127 34.6499 52.5075 34.7325 52.0794C34.803 51.621 34.7061 51.1527 34.4592 50.7594C34.2124 50.3661 33.832 50.0738 33.3871 49.9356L34.0108 49.7613C34.7119 49.5561 35.5006 49.2484 35.7635 48.4842C36.1656 47.3559 35.5264 46.4328 34.5573 45.7866C35.0742 45.7945 35.591 45.7654 36.1038 45.6994C37.0935 45.5712 38.1091 45.2327 38.5369 44.248C39.1246 42.971 38.604 41.9761 37.6554 41.2222Z" fill="#FAC1B0"/>
<path d="M184.104 56.1498C184.104 53.8162 184.156 51.4519 183.97 49.1236C183.862 47.7388 183.455 46.749 182.12 46.2208C181.979 46.1671 181.823 46.1671 181.681 46.2208C181.582 46.2156 181.483 46.2349 181.393 46.2769C181.303 46.319 181.225 46.3825 181.166 46.4618C179.445 48.6112 177.093 50.1742 174.439 50.934C171.284 51.7751 164.309 52.2982 163.489 47.5953C163.466 47.4533 163.395 47.3234 163.288 47.226C163.206 47.1214 163.09 47.0474 162.96 47.0158C162.83 46.9842 162.694 46.9968 162.572 47.0516C161.242 47.5645 160.67 48.5902 160.51 49.9595C160.268 52.3141 160.354 54.6907 160.768 57.0216C161.463 60.786 179.016 63.8273 184.099 56.9139C184.19 56.8074 184.24 56.6725 184.241 56.5328C184.242 56.393 184.194 56.2574 184.104 56.1498Z" fill="#DAE9F7"/>
<path d="M142.932 75.245C144.427 76.7423 146.025 78.1782 147.164 79.9935C147.489 80.5063 148.334 80.0345 148.004 79.4807C146.844 77.5936 145.174 76.0962 143.622 74.5373C143.526 74.4897 143.416 74.4734 143.31 74.4908C143.204 74.5082 143.105 74.5583 143.029 74.6342C142.953 74.7101 142.902 74.8078 142.885 74.9137C142.867 75.0196 142.884 75.1283 142.932 75.2245V75.245Z" fill="#B7CFDF"/>
<path d="M160.303 54.165C158.163 58.8725 166.056 59.5699 168.778 59.9391C173.829 60.6212 179.118 60.493 183.567 57.7341C184.083 57.4059 183.609 56.5649 183.052 56.8983C179.577 59.052 175.505 59.5443 171.484 59.2571C169.489 59.1187 159.303 58.6571 161.128 54.6419C161.385 54.0779 160.54 53.5856 160.282 54.1291L160.303 54.165Z" fill="#B7CFDF"/>
<path d="M164.15 20.3475C163.807 19.951 163.361 19.6557 162.861 19.4938C162.361 19.3319 161.826 19.3097 161.315 19.4296C160.423 19.6142 159.026 20.3373 158.902 21.3526C158.814 22.0911 159.418 23.0141 160.237 22.8551C160.826 22.7263 161.431 22.6865 162.031 22.7372C162.487 22.8326 162.955 22.8568 163.418 22.809C163.673 22.7495 163.908 22.6239 164.099 22.4449C164.289 22.266 164.429 22.04 164.503 21.7899C164.577 21.5399 164.584 21.2747 164.522 21.0214C164.46 20.768 164.331 20.5355 164.15 20.3475Z" fill="#B86142"/>
<path d="M175.071 23.6292C174.742 23.0738 174.295 22.5968 173.76 22.2318C173.226 21.8668 172.618 21.6226 171.978 21.5165C170.854 21.3934 169.184 21.9216 169.272 23.26C169.37 24.7984 171.221 24.3779 172.195 24.9317C172.767 25.3363 173.474 25.507 174.169 25.4086C174.86 25.2138 175.53 24.3215 175.071 23.6292Z" fill="#B86142"/>
<path d="M142.994 60.0797C143.586 55.746 141.555 52.5765 138.204 50.0276C138.109 49.9508 137.992 49.906 137.869 49.8994C136.246 48.7865 132.89 47.1351 132.488 49.6019C132.452 49.8378 132.75 50.2379 132.807 50.4533C130.957 49.4276 127.621 48.9147 128.358 51.3713C128.718 52.4815 129.445 53.4379 130.42 54.0843C128.441 53.2279 127.214 53.2689 127.059 55.2177C127.044 55.5478 127.1 55.8774 127.225 56.1837C127.349 56.49 127.539 56.7659 127.781 56.9922C126.142 56.664 125.905 58.141 126.235 60.0694C126.456 61.4644 128.379 62.0695 128.482 64.2184C128.544 65.6185 128.085 66.5622 126.936 71.0548C126.379 73.2755 127.039 75.2962 127.967 77.3579C129.266 80.2094 131.395 82.4608 133.606 84.702C133.606 84.702 144.483 81.2454 144.504 81.1685C143.324 79.6299 139.591 73.8397 139.617 72.3114C139.937 67.3571 142.339 64.839 142.994 60.0797Z" fill="#FAC1B0"/>
<path d="M207.662 69.7254C207.606 69.4433 202.059 60.1605 185.413 79.1261C178.82 86.6344 174.232 93.199 166.933 99.8354C164.303 102.22 162.19 105.226 160.313 108.313C157.22 113.395 175.309 122.847 176.108 122.673C182.238 121.452 192.558 118.319 202.306 102.728C207.961 93.6913 215.529 79.4236 207.662 69.7254Z" fill="#DAE9F7"/>
<path d="M181.785 104.867C179.676 100.195 185.3 103.549 181.517 100.164C165.345 85.6812 152.515 82.2142 146.921 80.891C146.522 80.7365 146.161 80.4967 145.865 80.1884C144.529 78.6139 143.081 76.8087 141.741 75.2342C141.633 75.0925 141.487 74.983 141.321 74.9179C141.155 74.8528 140.973 74.8344 140.797 74.8649C140.594 74.792 140.376 74.7708 140.163 74.8034C138.617 75.0488 137.131 75.5849 135.786 76.383C134.21 77.3031 132.832 78.523 131.73 79.973C131.112 80.7851 130.58 81.6581 130.142 82.5784C129.683 83.5631 130.456 84.8914 130.879 85.753C131.318 86.62 131.849 87.4382 132.462 88.1942C131.482 92.8663 131.43 95.8871 133.059 99.2001C133.775 100.643 134.638 102.007 135.637 103.272C136.369 104.231 137.029 105.057 137.668 105.79C140.462 109.062 142.514 110.473 146.829 113.74C156.309 120.92 175.398 129.705 185.089 119.489C185.847 118.73 183.97 109.719 181.785 104.867Z" fill="#DAE9F7"/>
<path d="M147.338 80.1688C152.882 82.8366 158.144 86.0494 163.045 89.7593C167.968 93.5083 172.777 97.3547 177.927 100.796C178.443 101.145 178.958 100.283 178.417 99.9549C173.262 96.5136 168.458 92.6672 163.54 88.9233C158.637 85.2117 153.373 81.9972 147.827 79.3277C147.265 79.0559 146.77 79.8918 147.312 80.1688H147.338Z" fill="#B7CFDF"/>
<path d="M178.556 95.3178C181.016 95.6902 183.311 96.7745 185.155 98.4356C185.619 98.8561 186.315 98.1689 185.846 97.7484C183.884 95.9652 181.439 94.7953 178.814 94.3845C178.201 94.2871 177.938 95.2204 178.556 95.3178Z" fill="#B7CFDF"/>
<path d="M192.265 71.4499C188.304 75.0173 184.581 78.8377 181.119 82.8866C177.681 86.7895 174.222 90.8206 171.474 95.2466C171.145 95.7594 171.99 96.2723 172.32 95.7594C175.088 91.2924 178.588 87.2357 182.068 83.3021C185.45 79.3449 189.085 75.6087 192.95 72.1166C193.419 71.7012 192.729 71.019 192.259 71.4293L192.265 71.4499Z" fill="#B7CFDF"/>
<path d="M206.182 97.5493C202.984 102.436 199.332 107.014 195.274 111.222C191.666 115.043 187.944 118.884 183.464 121.679C181.227 123.074 178.737 124.244 176.082 124.551C173.344 124.805 170.583 124.574 167.927 123.869C163.024 122.643 158.498 119.905 154.168 117.397C148.907 114.374 144.005 110.771 139.554 106.658C139.09 106.232 138.399 106.919 138.863 107.345C142.943 111.139 147.413 114.496 152.199 117.361C156.694 120.064 161.478 122.977 166.519 124.495C171.448 125.967 176.752 126.146 181.469 123.9C186.449 121.52 190.588 117.535 194.357 113.607C198.996 108.771 203.424 103.714 207.033 98.0416C207.368 97.5287 206.517 97.0159 206.187 97.5287L206.182 97.5493Z" fill="#B7CFDF"/>
<path d="M143.689 79.6353C139.967 80.7839 136.188 83.0762 134.054 86.3888C133.714 86.9016 134.57 87.4144 134.894 86.9016C136.889 83.8249 140.482 81.6608 143.947 80.5891C144.545 80.4045 144.292 79.4661 143.689 79.6558V79.6353Z" fill="#B7CFDF"/>
<path d="M128.93 58.5105C129.862 59.2847 130.583 60.2805 131.025 61.4054C131.468 62.5304 131.618 63.7482 131.461 64.9461C131.384 65.5666 132.363 65.5615 132.435 64.9461C132.599 63.6197 132.427 62.2735 131.936 61.0298C131.445 59.786 130.649 58.6839 129.621 57.8234C129.147 57.4234 128.451 58.1054 128.93 58.5105Z" fill="#D6876F"/>
<path d="M131.435 55.2575C132.801 56.1384 133.897 57.3761 134.604 58.8351C135.31 60.294 135.6 61.9182 135.441 63.5299C135.384 64.1556 136.358 64.1505 136.415 63.5299C136.574 61.7484 136.24 59.9575 135.45 58.3511C134.659 56.7448 133.442 55.3841 131.93 54.4164C131.415 54.0779 130.899 54.9292 131.415 55.2575H131.435Z" fill="#D6876F"/>
<path d="M134.193 52.242C135.4 53.4421 136.879 54.7037 137.704 56.2013C138.663 57.9399 138.797 60.0682 138.673 62.012C138.637 62.6377 139.611 62.6325 139.652 62.012C139.771 60.0631 139.621 57.9091 138.766 56.1346C137.91 54.3601 136.26 52.9241 134.884 51.5548C134.787 51.5071 134.678 51.4909 134.572 51.5082C134.465 51.5256 134.367 51.5758 134.291 51.6517C134.214 51.7276 134.164 51.8253 134.146 51.9312C134.129 52.0371 134.145 52.1458 134.193 52.242Z" fill="#D6876F"/>
<path d="M193.697 12.044C193.027 9.4797 189.97 8.28475 187.218 9.13609C183.609 10.249 182.186 13.6646 180.717 16.4546C180.63 16.6081 180.59 16.7836 180.602 16.9595C180.614 17.1354 180.677 17.304 180.784 17.4444C180.731 17.6083 180.736 17.7849 180.797 17.946C180.858 18.107 180.971 18.2429 181.119 18.3317C183.599 20.1985 187.187 19.7164 190.007 18.665C193.094 17.506 194.45 14.9263 193.697 12.044Z" fill="#B86142"/>
<path d="M36.5835 40.179C35.2609 38.843 33.5405 37.9668 31.6777 37.6804C29.8149 37.394 27.9088 37.7128 26.2425 38.5893C25.6858 38.8816 26.1755 39.7175 26.758 39.4252C28.2383 38.6561 29.928 38.381 31.5775 38.6405C33.2271 38.8999 34.749 39.6802 35.9185 40.8662C36.3567 41.3174 37.0475 40.6303 36.6093 40.179H36.5835Z" fill="#D6876F"/>
<path d="M33.6394 44.3798C32.4598 43.9178 31.1863 43.7424 29.9248 43.8681C28.6633 43.9939 27.4503 44.4172 26.3863 45.1029C25.8708 45.4362 26.345 46.2772 26.9018 45.9388C27.8556 45.3216 28.945 44.9425 30.0776 44.8336C31.2101 44.7247 32.3525 44.8892 33.4075 45.3131C33.99 45.5439 34.2477 44.6055 33.6652 44.3798H33.6394Z" fill="#D6876F"/>
<path d="M32.1497 49.4639C31.3105 49.2678 30.436 49.2778 29.6016 49.4931C28.7672 49.7084 27.9982 50.1226 27.3608 50.6998C26.8865 51.1151 27.5824 51.8023 28.0515 51.3869C28.564 50.9263 29.1811 50.5961 29.8499 50.4246C30.5188 50.2532 31.2194 50.2455 31.8919 50.4023C32.5002 50.5408 32.7631 49.6024 32.1497 49.4639Z" fill="#D6876F"/>
<path d="M185.943 16.3581C185.711 15.9627 185.457 15.5808 185.18 15.2144C181.984 10.9423 176.02 9.42941 170.927 9.30632C159.41 9.02425 154.724 19.4866 154.838 19.7584C154.4 20.8251 155.271 22.9484 155.967 21.8509C158.73 17.4915 163.916 15.0862 168.633 15.1324C168.795 15.1364 168.95 15.2026 169.064 15.3173C169.178 15.432 169.244 15.5863 169.246 15.7478C169.38 18.4711 170.556 21.297 171.891 23.5023C173.328 25.8652 175.241 27.9065 177.51 29.4976C178.661 30.305 179.893 30.9925 181.185 31.5491C182.732 32.2158 185.283 33.6364 186.227 31.3029C188.139 26.5999 188.567 20.8303 185.943 16.3581Z" fill="#B86142"/>
<path d="M178.409 37.846C177.202 40.2565 175.914 42.9079 173.614 44.4773C171.233 46.1031 168.104 46.2826 165.31 46.3954C164.686 46.3954 164.681 47.3903 165.31 47.3647C168.274 47.2467 171.578 47.0313 174.109 45.3133C176.64 43.5952 177.96 40.9078 179.264 38.3281C179.548 37.7691 178.702 37.3024 178.424 37.8153L178.409 37.846Z" fill="#D6876F"/>
<path d="M172.16 25.5744C171.969 25.4051 171.735 25.2904 171.484 25.2425C171.232 25.1947 170.972 25.2154 170.732 25.3026C168.752 25.959 168.984 30.3229 171.211 29.405C172.062 29.0614 172.479 27.923 172.536 27.0718C172.582 26.8099 172.572 26.5413 172.507 26.2834C172.443 26.0255 172.324 25.784 172.16 25.5744Z" fill="#2E060A"/>
<path d="M162.19 23.7115C162.01 23.5309 161.78 23.4077 161.529 23.3575C161.279 23.3072 161.019 23.3323 160.783 23.4294C158.824 24.1576 159.035 28.5574 161.247 27.5318C161.644 27.3152 161.975 26.9951 162.204 26.6058C162.433 26.2165 162.551 25.7726 162.546 25.3216C162.644 24.7593 162.516 24.1809 162.19 23.7115Z" fill="#2E060A"/>
<path d="M164.427 26.0159C163.983 26.1535 163.586 26.4092 163.278 26.7555C162.969 27.1017 162.763 27.5251 162.679 27.9799C162.555 29.0517 163.262 29.9235 164.03 30.585C164.504 30.9901 165.195 30.308 164.721 29.8978C164.238 29.5563 163.877 29.0716 163.69 28.5132C163.641 28.1724 163.719 27.8256 163.908 27.5377C164.098 27.2498 164.387 27.0406 164.721 26.9492C165.293 26.7133 165.045 25.7749 164.463 26.0159H164.427Z" fill="#D6876F"/>
<path d="M166.066 29.8301C166.17 29.8181 166.275 29.8316 166.372 29.8691C166.469 29.9066 166.555 29.9671 166.623 30.0454C166.72 30.0931 166.829 30.1094 166.936 30.092C167.042 30.0746 167.14 30.0244 167.217 29.9486C167.293 29.8727 167.343 29.7749 167.361 29.669C167.378 29.5631 167.362 29.4545 167.314 29.3583C167.12 29.1628 166.881 29.0179 166.618 28.9365C166.354 28.8551 166.074 28.8397 165.804 28.8916C165.741 28.908 165.682 28.9366 165.63 28.9758C165.578 29.015 165.535 29.0641 165.503 29.1202C165.47 29.1762 165.449 29.2381 165.441 29.3023C165.433 29.3664 165.438 29.4315 165.455 29.4938C165.473 29.5561 165.503 29.6143 165.543 29.665C165.583 29.7158 165.633 29.758 165.69 29.7893C165.747 29.8206 165.81 29.8403 165.874 29.8473C165.939 29.8543 166.004 29.8485 166.066 29.8301Z" fill="#D6876F"/>
<path d="M168.036 32.7751C166.015 32.4623 161.803 31.488 161.741 31.606C161.685 31.6238 161.634 31.6566 161.595 31.7009C161.556 31.7452 161.53 31.7992 161.52 31.8572C161.417 32.7854 161.52 33.3136 162.303 33.8366C164.071 35.0007 167.639 35.2058 168.298 33.1444C168.307 33.1028 168.307 33.0598 168.299 33.0182C168.29 32.9765 168.273 32.9372 168.248 32.9025C168.224 32.8678 168.192 32.8386 168.155 32.8166C168.119 32.7947 168.078 32.7806 168.036 32.7751Z" fill="white"/>
<path d="M183.501 14.0082C184.316 14.5219 184.995 15.2236 185.48 16.0538C185.964 16.884 186.24 17.8182 186.285 18.7772C186.321 19.3977 187.316 19.4028 187.264 18.7772C187.212 17.6493 186.887 16.5505 186.317 15.5739C185.747 14.5973 184.949 13.7718 183.991 13.1672C183.475 12.8288 182.96 13.68 183.501 14.0082Z" fill="#914429"/>
<path d="M178.594 15.3312C182.151 19.4751 181.641 25.1576 180.852 30.1734C180.759 30.7837 181.697 31.0504 181.795 30.4298C182.641 25.0294 183.099 19.0905 179.285 14.644C178.877 14.167 178.187 14.8594 178.594 15.3312Z" fill="#914429"/>
<path d="M184.44 22.2507C184.93 23.9276 184.337 25.5275 183.693 27.0761C183.45 27.6505 184.394 27.9017 184.631 27.3325C185.347 25.6147 185.92 23.8404 185.384 21.9892C185.323 21.8995 185.236 21.831 185.134 21.7935C185.032 21.756 184.921 21.7514 184.817 21.7804C184.712 21.8094 184.619 21.8705 184.552 21.9549C184.484 22.0394 184.445 22.1429 184.44 22.2507Z" fill="#914429"/>
<path d="M183.5 29.3691C180.407 25.6611 175.629 33.7592 177.077 36.5953C178.315 39.0211 181.057 36.7389 182.232 35.4106C183.5 33.9848 184.959 31.1333 183.5 29.3691Z" fill="#FAC1B0"/>
<path d="M182.016 30.0615C181.343 30.3679 180.748 30.8219 180.277 31.3894C179.806 31.9569 179.47 32.6232 179.294 33.3383C179.3 33.4457 179.34 33.5486 179.408 33.6322C179.476 33.7159 179.568 33.7762 179.673 33.8046C179.777 33.8329 179.888 33.8279 179.989 33.7902C180.09 33.7526 180.177 33.6842 180.237 33.5947C180.381 33.0016 180.661 32.4498 181.056 31.9826C181.45 31.5155 181.948 31.1458 182.511 30.9025C183.083 30.6461 182.588 29.8051 181.995 30.0615H182.016Z" fill="#D6876F"/>
<path d="M207.318 128.598C202.425 134.085 195.502 137.316 188.466 139.132C180.828 141.058 172.906 141.612 165.072 140.768C160.824 140.353 156.635 139.47 152.582 138.137C151.984 137.937 151.731 138.875 152.324 139.075C159.768 141.558 167.789 142.399 175.599 142.019C183.409 141.64 191.378 140.029 198.405 136.485C202.03 134.712 205.288 132.276 208.008 129.305C208.421 128.839 207.735 128.152 207.318 128.618V128.598Z" fill="#B7CFDF"/>
<path d="M153.501 5.2011C152.789 2.84961 151.17 0.854049 148.657 0.225469C146.801 -0.200681 144.861 -0.019754 143.11 0.742849C141.358 1.50545 139.883 2.8115 138.892 4.47787C136.929 7.83282 137.785 11.7368 140.677 14.1943C144.865 17.7462 152.358 15.8756 153.671 10.2298C154.047 8.56745 153.988 6.83274 153.501 5.2011Z" fill="#FFD546"/>
<path d="M259.141 49.1357C261.058 50.2025 259.569 53.7156 259.198 55.3413C258.744 57.3278 258.288 59.3143 257.831 61.3007C257.687 61.9059 258.63 62.1675 258.77 61.5572C259.423 58.7057 260.077 55.8559 260.734 53.0078C261.12 51.3051 261.424 49.2947 259.63 48.2946C259.084 47.992 258.599 48.8331 259.141 49.1357Z" fill="#ABC3D8"/>
</svg>
