<svg width="36" height="40" viewBox="0 0 36 40" fill="none" xmlns="http://www.w3.org/2000/svg">
<mask id="mask0_17_82813" style="mask-type:alpha" maskUnits="userSpaceOnUse" x="0" y="-6" width="36" height="46">
<path d="M0 12C0 2.05888 8.05888 -6 18 -6C27.9411 -6 36 2.05888 36 12V22C36 31.9411 27.9411 40 18 40C8.05888 40 0 31.9411 0 22V12Z" fill="#D9D9D9"/>
</mask>
<g mask="url(#mask0_17_82813)">
<rect y="4" width="36" height="36" rx="18" fill="#E6F4FF"/>
<path d="M0.279421 18.2128C0.347862 18.0384 0.419748 17.8639 0.494036 17.6929C0.95351 16.6324 1.52819 15.6266 2.15756 14.6585C2.77077 13.7177 3.48784 12.6983 3.52154 11.5318C3.59652 8.92161 4.3642 6.13979 6.01398 3.94355C7.38621 2.11677 9.61923 0.434246 11.9252 0.461613C12.3039 0.468452 12.6461 0.379517 13.0223 0.314518C16.0419 -0.184937 19.2211 -0.253361 21.8431 1.35106C24.7713 3.14021 27.611 7.48608 28.4766 9.40395C29.5418 11.7639 29.5418 18.7152 29.5418 18.7152C29.5418 18.7152 31.2774 26.3698 30.6112 28.3403C30.6112 28.3403 31.5314 30.7478 31.7278 31.6544C31.8616 32.2735 32.0497 33.0638 31.8175 33.6796C31.4616 34.6169 30.1413 34.268 29.4369 34.0114C28.6917 33.7411 28.3557 33.8985 27.5674 33.7856C26.6278 33.6522 25.6724 33.7172 24.7277 33.7069C23.2829 33.6898 22.1607 33.2554 20.8276 32.7662C19.7415 32.3659 18.6871 32.2017 17.5755 32.5849C17.4779 32.6156 17.4435 32.7046 17.451 32.7901C17.2264 33.1048 17.0328 33.4332 16.8722 33.7787C16.3374 33.8095 15.8016 33.8095 15.2637 33.7411C13.8161 33.5667 12.3806 33.8061 10.9348 33.5427C8.74988 33.1493 6.8573 32.4206 4.63215 33.1527C3.16018 33.6385 1.8753 33.9224 0.892719 32.0409C-0.0998306 30.1389 -0.467224 20.1423 0.279421 18.2128Z" fill="#8C5441"/>
<path d="M6.26795 29.9709C7.16317 29.3928 8.70392 29.0951 9.65004 28.6059C11.8559 27.4599 11.2489 18.805 11.1942 16.4343C11.1832 15.9622 11.9185 15.9622 11.9295 16.4343C11.9295 16.4411 11.9295 16.448 11.9299 16.4582C13.525 16.9611 15.1201 17.4639 16.7152 17.9702C17.5767 18.2405 18.799 18.3739 19.4779 19.0273C19.6172 19.0581 19.7313 19.1642 19.7327 19.3455C19.8042 19.472 19.7867 19.5918 19.7227 19.6876C19.6419 21.7846 19.5205 24.0835 19.4858 26.1805C19.471 27.0734 19.5841 27.7644 20.2204 28.4452C21.3202 29.6254 23.0051 29.7759 24.2996 30.703C25.0751 31.2572 24.4575 33.4808 24.4506 33.4876C24.0654 37.4183 20.5874 41.8279 16.1814 41.0342C14.057 40.6511 12.1662 37.9211 10.8555 36.433C9.14071 34.4865 7.19722 32.9266 6.18197 30.5251C6.17956 30.5182 6.17922 30.5148 6.17682 30.508C6.06436 30.3506 6.05679 30.1078 6.26795 29.9709Z" fill="#F7B38B"/>
<path d="M21.6414 14.6211C21.6393 14.6075 21.6369 14.5904 21.6352 14.5767C21.466 13.3246 21.6923 12.0178 22.5222 11.1523C22.992 10.6631 23.5054 10.93 23.7909 11.4499C24.1152 12.0383 24.0591 12.8217 23.9432 13.4649C23.817 14.1662 23.6382 15.1582 23.1096 15.6782C22.2525 16.5163 21.7807 15.5756 21.6414 14.6211Z" fill="#F7B38B"/>
<path d="M19.4763 25.8246C17.2824 25.7938 15.7922 24.1346 14.15 22.4105C12.7289 20.919 11.6886 18.0933 11.5145 16.0852C11.7102 16.0681 11.9235 16.181 11.9293 16.4341C11.9293 16.441 11.9293 16.4478 11.9296 16.4581C13.5247 16.9609 15.1198 17.4638 16.7149 17.9701C17.5764 18.2404 18.7987 18.3738 19.4776 19.0272C19.6169 19.058 19.7311 19.164 19.7325 19.3453C19.804 19.4719 19.7865 19.5916 19.7225 19.6874C19.673 20.9703 19.5272 24.4836 19.4763 25.8246Z" fill="#DE9E78"/>
<path d="M8.81882 5.4702C9.29136 4.47813 10.1653 3.73235 11.1379 3.24315C12.9225 2.34687 15.5686 2.12109 17.4254 2.8566C19.8583 3.82472 22.2605 5.68912 22.9463 8.30614C23.801 11.5697 23.4711 14.5665 22.7396 18.3158C22.4748 19.6705 21.3818 20.837 20.0777 21.4836C18.6614 22.1849 17.0436 22.0549 15.573 21.5897C14.0742 21.1141 12.0499 20.2418 11.1169 18.911C10.1054 17.4708 8.85425 13.3828 8.93232 13.2049C8.23245 10.6597 7.70555 7.81012 8.81882 5.4702Z" fill="#F7B38B"/>
<path d="M19.1118 7.63843C19.6098 6.99871 20.5243 7.01927 21.2272 7.18689C22.0585 7.38531 23.2278 8.32264 22.8364 9.28392C22.7797 9.42418 22.6696 9.55073 22.5231 9.58836C22.4371 9.61231 22.3464 9.60547 22.258 9.59521C21.7462 9.54732 21.2324 9.47892 20.7176 9.47892C20.3183 9.44813 19.8602 9.46179 19.4884 9.28733C18.8535 8.99313 18.7046 8.17894 19.1118 7.63843Z" fill="#8C5441"/>
<path d="M14.7939 7.09109C15.242 7.21425 15.6272 7.4469 15.7621 7.87109C15.9743 8.53817 15.5151 9.13341 14.969 9.30104C14.3988 9.4755 13.8199 9.2805 13.2487 9.22577C12.6042 9.16077 11.9593 9.33865 11.3159 9.27023C10.7666 9.20866 10.693 8.57578 10.9369 8.11737C11.3661 7.31003 12.4288 6.99875 13.2232 6.96454C13.6187 6.95086 14.2526 6.94057 14.7939 7.09109Z" fill="#8C5441"/>
<path d="M12.9914 11.1455C13.0657 10.824 13.2559 10.5571 13.5884 10.4477C14.2422 10.239 14.6429 10.6974 14.7719 11.1832C14.8606 11.515 14.8743 11.8605 14.8118 12.1958C14.7337 12.6165 14.3826 13.1092 13.7862 12.9107C13.1816 12.7123 12.8373 11.8126 12.9914 11.1455Z" fill="#261414"/>
<path d="M19.9382 10.9981C20.0039 10.6799 20.1721 10.4131 20.4661 10.3036C21.0443 10.0915 21.3988 10.5534 21.513 11.0357C21.5914 11.3675 21.6035 11.713 21.5481 12.0483C21.479 12.4691 21.1684 12.9651 20.6408 12.7667C20.1064 12.5683 19.8017 11.6651 19.9382 10.9981Z" fill="#261414"/>
<path d="M18.719 11.6551C18.9329 12.1921 19.2934 12.8113 19.1861 13.4134C19.0822 13.995 18.5612 14.4157 18.016 14.5731C17.8028 14.6347 17.712 14.3028 17.9246 14.2413C18.5691 14.0565 18.9625 13.5195 18.8053 12.8558C18.7135 12.4726 18.5329 12.11 18.3875 11.744C18.3063 11.5387 18.6385 11.4498 18.719 11.6551Z" fill="#75311E"/>
<path d="M17.3826 13.9089C17.0769 13.9089 16.8107 13.9088 16.5414 14.0662C16.3502 14.1791 16.1768 13.8849 16.3677 13.772C16.6906 13.5804 17.0153 13.5668 17.3826 13.5668C17.6037 13.5668 17.6041 13.9089 17.3826 13.9089Z" fill="#75311E"/>
<path d="M15.957 15.8388C16.2693 15.637 17.0063 15.7875 17.2423 15.7944C17.7778 15.8046 18.3139 15.7978 18.8487 15.767C18.9275 15.7636 19.0107 15.7602 19.0809 15.7944C19.1806 15.8457 19.2122 16.027 19.1806 16.1262C18.9574 16.8309 18.0075 17.1114 17.3372 17.0499C16.92 17.0088 16.442 16.8343 16.1187 16.5675C15.9825 16.4546 15.805 16.2767 15.8153 16.0817C15.8215 15.9688 15.8745 15.8901 15.957 15.8388Z" fill="white"/>
<path d="M3.0505 66.9616C2.89918 67.16 2.36266 66.8316 2.35578 66.8213C-0.343979 55.2962 -0.13419 51.5639 -0.120434 51.4237C-0.103237 51.2903 -0.0688477 51.1534 -0.0206985 51.0132C0.158138 50.5 0.522694 49.9527 0.722168 49.5079C1.06609 48.7314 1.35155 47.9309 1.60605 47.1201C2.09097 45.5499 2.43833 43.9387 2.74098 42.324C3.45977 38.472 3.62828 34.5448 3.24997 30.6517C3.2259 30.4123 3.35315 30.1831 3.57669 30.0873C5.62989 29.1944 8.17834 28.7908 8.81459 28.7942C8.89025 28.7942 8.95559 28.8421 8.97966 28.9139C15.551 31.5702 20.0497 30.3218 21.4777 29.3655C21.4673 29.1534 21.6152 29.0405 21.7769 29.02C21.8388 29.0028 21.9041 28.9994 21.9832 29.0268C23.579 29.5981 25.3777 29.9812 27.0285 31.0212C27.314 31.2025 30.8426 41.154 31.7849 47.2638C32.146 49.6072 32.5691 52.0258 32.5622 54.4136C32.5622 58.7684 30.6637 61.0981 30.8494 61.2657C30.674 62.5759 30.4849 63.8827 30.2889 65.1895C30.1135 66.3492 29.6836 66.5818 28.5796 66.534L27.9124 66.5031L27.228 66.4724L27.2161 66.4718C26.5391 66.4412 25.8621 66.4106 25.1851 66.3834C24.5007 66.3526 23.8163 66.3253 23.1319 66.3013L22.4441 66.2774C21.0203 66.2226 19.5964 66.1816 18.176 66.1576C17.612 66.1474 17.0446 66.1405 16.4805 66.1405C16.3808 66.1371 16.2845 66.1371 16.1848 66.1371C16.0546 66.1337 15.9244 66.1337 15.7942 66.1337H15.7927H15.7274C14.1935 66.1303 12.6596 66.1508 11.1257 66.2124C10.9044 66.2189 10.6862 66.2287 10.4651 66.2385L10.4379 66.2397C9.30638 66.2945 8.17833 66.3663 7.05027 66.4689C6.81985 66.4929 6.58942 66.5134 6.35899 66.5374C5.65396 66.6092 4.9455 66.6913 4.24047 66.7871C3.84496 66.8384 3.44601 66.8966 3.0505 66.9616Z" fill="white"/>
<path d="M22.4442 66.2766L23.132 66.3005C23.1183 60.6765 24.5352 55.2269 24.0228 49.5687C23.5826 44.7007 22.3341 39.9559 20.9103 35.2863C20.7624 35.5053 20.587 35.7173 20.3807 35.9123C21.7942 40.5819 23.0117 45.3336 23.3865 50.2084C23.8061 55.6306 22.4373 60.8852 22.4442 66.2766Z" fill="#F9FCFF"/>
<path d="M16.3434 51.1155C16.1371 56.134 15.2876 61.1046 15.7931 66.1334C15.9238 66.1334 16.0545 66.1334 16.1852 66.1368C16.2849 66.1368 16.3812 66.1368 16.481 66.1403C15.9754 61.1115 16.8318 56.134 17.0313 51.1155C17.2204 46.3809 16.5945 41.6156 16.1474 36.8981C16.0855 36.8878 16.0236 36.8776 15.9617 36.8673C15.7863 36.8331 15.6109 36.7921 15.4423 36.7442C15.8929 41.5095 16.5394 46.3296 16.3434 51.1155Z" fill="#F9FCFF"/>
<path d="M10.4382 66.2395C10.6686 66.2292 10.8956 66.219 11.126 66.2121C11.4115 61.1047 11.6041 55.9835 11.2155 50.8795C10.9953 48.0025 10.7649 45.1768 10.8681 42.2827C10.9678 39.3852 11.2154 36.491 11.2774 33.5867C11.1983 33.4772 11.1226 33.3643 11.0469 33.2514C10.9162 33.0599 10.7924 32.8614 10.6721 32.6596C10.5964 35.6632 10.2594 39.6657 10.1699 42.6179C10.084 45.3992 10.3178 48.1154 10.5276 50.8795C10.9197 55.9938 10.7202 61.1252 10.4382 66.2395Z" fill="#F9FCFF"/>
<path d="M-7.20729 34.5718C-6.88814 32.3824 -4.18631 31.0585 -2.42613 30.5282C-0.733022 30.0185 6.09549 27.7197 8.08334 27.9899C8.44239 28.0378 8.60163 28.6844 8.65253 29.0401C8.84891 30.4119 9.51955 35.6631 9.35757 42.5049C9.26436 46.4287 8.9648 49.8429 8.08334 53.688C7.16576 57.6939 5.94554 62.0659 4.47872 65.8939C2.88019 70.064 -2.22494 83.6383 -3.89294 87.7845C-4.04977 88.1744 -6.68762 85.2701 -6.74265 85.0409C-8.04163 79.6426 -7.83323 38.8651 -7.20729 34.5718Z" fill="#E1E9FF"/>
<path d="M20.6642 28.7393C20.8379 28.6093 34.1152 31.4072 38.1583 35.6217C41.517 39.1214 44.5366 45.1388 46.1692 49.5142C46.229 49.675 43.4688 49.066 43.4048 49.1755C43.4148 49.2439 43.4127 49.3158 43.3924 49.3945C41.8788 55.34 39.4287 61.6551 37.3247 67.4159C37.0003 69.9098 38.6157 73.7173 38.0527 76.1735C37.8725 76.9569 42.0116 103.815 36.609 90.9828C35.2608 87.7808 30.1852 71.0284 29.832 67.6417C29.3516 63.0371 29.0128 57.9981 28.2524 53.4312C27.534 49.1139 26.6797 44.8206 25.6885 40.5547C24.7936 36.7062 24.2078 33.4307 21.4062 30.4374C21.0138 30.2253 20.3499 28.9377 20.6642 28.7393Z" fill="#E1E9FF"/>
<path d="M5.28184 6.3319C6.09177 1.85047 11.5828 0.793379 15.3336 0.933638C15.347 0.933638 15.3576 0.937065 15.3686 0.940487C15.4171 0.923382 15.4735 0.909691 15.5396 0.916533C19.6336 1.2381 25.3189 3.73882 26.905 8.16551C27.6342 10.1975 27.1448 10.3515 26.2867 12.1646C25.3715 14.0974 25.7429 15.1716 27.1389 16.6939C27.7359 17.3439 28.1906 17.9254 28.41 18.7978C28.5318 19.2801 27.7817 19.4854 27.6599 19.003C27.6176 18.8354 27.5585 18.6781 27.4904 18.5275C27.4663 18.5139 27.4409 18.507 27.4178 18.4865C26.145 17.3952 24.6596 16.4784 24.3697 14.7303C24.0749 12.9514 24.9227 11.1315 23.74 9.54073C23.6946 9.48258 23.6739 9.42098 23.6688 9.36624C22.7271 7.62157 20.5198 7.51211 18.9385 6.54056C18.3862 6.20189 17.9016 5.79479 17.4762 5.32954C17.3988 5.24744 17.2574 5.28167 17.2364 5.39114C17.1068 6.07875 16.7605 6.72529 16.1149 7.26922C14.9305 8.27155 13.2057 8.13472 11.9728 9.02074C10.6707 9.95808 10.6225 11.7506 9.13647 12.5648C9.09417 12.5888 9.0529 12.599 9.01163 12.6059C8.03834 13.3106 7.10564 13.5466 6.23553 12.4793C4.92038 10.8646 4.90318 8.42551 5.28184 6.3319Z" fill="#8C5441"/>
<path d="M7.55994 11.7713C8.32825 10.9502 9.29775 11.6891 9.83529 12.3425C10.6473 13.3346 10.8292 14.1865 10.6683 15.4146C10.6304 15.7019 10.5909 15.9927 10.4575 16.2493C10.1765 16.7898 9.46628 16.9506 9.03741 16.4785C8.45481 15.8387 7.99774 15.1409 7.67755 14.3335C7.40448 13.6459 6.97596 12.3973 7.55994 11.7713Z" fill="#F7B38B"/>
<path d="M8.31858 12.3871C9.09824 13.0029 9.47243 14.101 9.7651 15.0109C9.83285 15.2196 9.50097 15.312 9.43356 15.1033C9.16049 14.2515 8.80523 13.2047 8.07543 12.63C7.90175 12.4931 8.14662 12.2537 8.31858 12.3871Z" fill="#75311E"/>
<path d="M8.57144 15.8665C8.74099 15.5278 9.27991 15.5175 9.53992 15.7536C9.79854 15.9862 9.93852 16.3078 9.82709 16.643C9.60148 17.3135 8.6024 17.447 8.44764 16.6738C8.3902 16.3831 8.43903 16.1299 8.57144 15.8665Z" fill="white"/>
</g>
</svg>
