<svg width="21" height="22" viewBox="0 0 21 22" fill="none" xmlns="http://www.w3.org/2000/svg">
<path d="M14.6307 16.3445C14.6307 14.4934 13.3118 13.1469 10.0775 11.6973C7.32345 10.4618 4.63403 8.97521 4.63403 5.61482C4.63403 4.08195 5.09951 1.97783 7.30036 0.5H0.0351562V21.5H5.83282C11.5058 21.5 14.6307 19.7372 14.6307 16.3445Z" fill="#005EB8"/>
<path d="M16.3825 15.8989C16.341 15.3947 16.2325 14.9299 16.0671 14.4993H21.0008V15.8989H16.3825Z" fill="#005EB8"/>
<path d="M13.7398 11.6991C14.3124 12.1117 14.8291 12.5738 15.2512 13.0993H20.9995V11.6991H13.7398Z" fill="#005EB8"/>
<path d="M16.3328 17.2994H21.001V18.699H15.9518C16.1509 18.2097 16.2677 17.7318 16.3328 17.2994Z" fill="#005EB8"/>
<path d="M21.001 1.89941V0.500211H14.9859C12.6719 0.500211 10.0965 0.779588 8.37594 1.89941H21.001Z" fill="#005EB8"/>
<path d="M13.588 21.4996C14.2419 21.0718 14.7457 20.594 15.1363 20.0991H21V21.4996H13.588Z" fill="#005EB8"/>
<path d="M6.9942 3.29969C6.75176 3.70719 6.57767 4.17251 6.48485 4.69981H21V3.29969H6.9942Z" fill="#005EB8"/>
<path d="M10.8007 10.079C9.88179 9.66685 9.13231 9.28155 8.52969 8.89949H21.0001V10.2991H11.2814C11.1408 10.233 10.9987 10.1686 10.8571 10.1045L10.8007 10.079Z" fill="#005EB8"/>
<path d="M6.43296 6.0998C6.49392 6.61322 6.66062 7.07022 6.95939 7.49946H21.0008V6.0998H6.43296Z" fill="#005EB8"/>
</svg>
