<?xml version="1.0" encoding="utf-8"?>
<!-- Generator: Adobe Illustrator 21.0.2, SVG Export Plug-In . SVG Version: 6.00 Build 0)  -->
<svg version="1.1" id="Layer_1" xmlns="http://www.w3.org/2000/svg" xmlns:xlink="http://www.w3.org/1999/xlink" x="0px" y="0px"
	 viewBox="0 0 500 152" style="enable-background:new 0 0 500 152;" xml:space="preserve">
<style type="text/css">
	.st0{fill:#005EB8;}
	.st1{fill:#FFFFFF;}
</style>
<g>
	<rect y="-0.1" class="st0" width="500" height="152.2"/>
	<g>
		<g>
			<rect x="213.7" y="57.5" class="st1" width="7.3" height="29.3"/>
			<path class="st1" d="M217.4,43.4c-1.3,0-2.3,0.4-3.1,1.3c-0.8,0.8-1.2,1.9-1.2,3c0,1.2,0.4,2.2,1.2,3c0.8,0.9,1.9,1.3,3.1,1.3
				c1.3,0,2.3-0.4,3.1-1.2c0.8-0.8,1.2-1.9,1.2-3.1c0-1.2-0.4-2.2-1.2-3C219.7,43.8,218.6,43.4,217.4,43.4z"/>
			<path class="st1" d="M237.9,82.1v-8.2h10.3v-4.2h-10.3v-8c0-0.3,0-0.5,0.7-0.5h11.8v-3.6h-14c-2.4,0-4,0.6-4.8,1.9
				c-0.7,1.1-1.1,2.7-1.1,4.6v17.1c0,1.9,0.5,3.4,1.4,4.3c0.9,0.9,2.2,1.4,3.9,1.4h14.6v-3.6h-11C238.2,83.3,237.9,82.8,237.9,82.1z
				"/>
			<path class="st1" d="M278.6,74.2c-0.1-0.1-0.1-0.2-0.2-0.3c-0.7-1-2-2.9-3.9-5.8c-2-2.9-3.7-5.5-5.3-7.7
				c-0.7-0.9-1.4-1.6-2.1-2.1c-0.8-0.5-1.8-0.8-2.9-0.8c-1.5,0-2.7,0.4-3.6,1.2c-1,0.8-1.4,2.1-1.4,3.7v24.4h4.2V64.5c0,0,0,0,0,0
				c0.4,0.6,1.4,2.1,3,4.5c1.6,2.5,4.2,6.4,7.7,11.9l2.3,3.3c0.4,0.6,0.7,1.1,1,1.5c0.3,0.5,0.8,1,1.2,1.3c0.5,0.3,1.1,0.5,1.8,0.5
				c1.1,0,1.9-0.3,2.2-1c0.2-0.5,0.3-1.3,0.3-2.5V57.5h-4.3L278.6,74.2z"/>
			<polygon class="st1" points="448.6,57.5 448.6,61.7 454.3,61.7 454.3,86.8 461.7,86.8 461.7,61.7 467.3,61.7 467.3,57.5 			"/>
			<path class="st1" d="M332.7,82.1v-8.2H343v-4.2h-10.3v-8c0-0.3,0-0.5,0.6-0.5h11.8v-3.6h-14c-2.4,0-4,0.6-4.7,1.9
				c-0.7,1.1-1.1,2.7-1.1,4.6v17.1c0,1.9,0.4,3.4,1.4,4.3c0.9,0.9,2.2,1.4,3.9,1.4h14.6v-3.6h-11C333,83.3,332.7,82.8,332.7,82.1z"
				/>
			<path class="st1" d="M308.7,83.9c-0.4,0-0.7,0.1-1.1,0.1c-2.8,0-4.8-1.2-5.9-3.5c-1.2-2.5-1.8-5.4-1.8-8.8c0-2,0.3-3.8,0.8-5.6
				c0.5-1.7,1.3-3.1,2.4-4.2c1.1-1,2.4-1.5,4.1-1.5c3,0,5.8,2.1,7.5,5.3l3.4-1.7c-1.6-2.5-2.9-4.1-5.1-5.5c-1.7-1.1-3.9-1.7-6.6-1.7
				c-2.9,0-5.5,0.7-7.7,2.1c-2.2,1.4-4,3.3-5.2,5.6c-1.2,2.3-1.8,4.8-1.8,7.5c0,0.1,0,0.2,0,0.3h0c0,0,0,0.1,0,0.1
				c0,0.3,0,0.6,0.1,0.9c0,0.1,0,0.3,0,0.4c0.2,2.2,0.8,4.3,1.8,6.2c0.1,0.3,0.3,0.5,0.5,0.8c0.1,0.1,0.1,0.2,0.2,0.3
				c0.2,0.3,0.4,0.6,0.6,0.9c0.2,0.3,0.4,0.6,0.7,0.8c0.1,0.1,0.2,0.3,0.4,0.4l0,0c0.4,0.4,0.8,0.7,1.2,1.1c0.2,0.2,0.4,0.4,0.7,0.5
				c0.2,0.1,0.3,0.2,0.5,0.4c0.2,0.1,0.4,0.3,0.6,0.4c2.3,1.4,4.8,2.1,7.7,2.1c2.7,0,4.9-0.6,6.6-1.7c2.3-1.4,3.5-3.1,5.1-5.5
				l-3.4-1.7C313.3,81.4,311.1,83.3,308.7,83.9z"/>
			<path class="st1" d="M195.1,83.9c-0.3,0-0.7,0.1-1.1,0.1c-2.8,0-4.8-1.2-5.9-3.5c-1.2-2.5-1.8-5.4-1.8-8.8c0-2,0.3-3.8,0.8-5.6
				c0.5-1.7,1.3-3.1,2.4-4.2c1.1-1,2.4-1.5,4.1-1.5c3,0,5.8,2.1,7.5,5.3l3.4-1.7c-1.6-2.5-2.9-4.1-5.1-5.5c-1.7-1.1-3.9-1.7-6.6-1.7
				c-2.9,0-5.5,0.7-7.7,2.1c-2.2,1.4-4,3.3-5.2,5.6c-1.2,2.3-1.8,4.8-1.8,7.5c0,0.1,0,0.2,0,0.3h0c0,0,0,0.1,0,0.1
				c0,0.3,0,0.6,0.1,0.9c0,0.1,0,0.3,0,0.4c0.2,2.2,0.7,4.3,1.8,6.2c0.1,0.3,0.3,0.5,0.5,0.8c0.1,0.1,0.1,0.2,0.2,0.3
				c0.2,0.3,0.4,0.6,0.6,0.9c0.2,0.3,0.4,0.6,0.7,0.8c0.1,0.1,0.2,0.3,0.4,0.4l0,0c0.4,0.4,0.8,0.7,1.2,1.1c0.2,0.2,0.4,0.4,0.7,0.5
				c0.2,0.1,0.3,0.2,0.5,0.4c0.2,0.1,0.4,0.3,0.6,0.4c2.3,1.4,4.8,2.1,7.7,2.1c2.7,0,4.9-0.6,6.6-1.7c2.3-1.4,3.5-3.1,5.1-5.5
				l-3.4-1.7C199.7,81.4,197.5,83.3,195.1,83.9z"/>
			<path class="st1" d="M405.7,56.9c-8.4,0-15.3,6.9-15.3,15.3c0,8.5,6.8,15.3,15.3,15.3c8.4,0,15.3-6.9,15.3-15.3
				C420.9,63.7,414.1,56.9,405.7,56.9z M405.7,83.8c-3.9,0-7-5.2-7-11.6c0-6.4,3.1-11.6,7-11.6c3.9,0,7,5.2,7,11.6
				C412.7,78.6,409.5,83.8,405.7,83.8z"/>
			<path class="st1" d="M436.4,57.5v-6.4c0-0.5,0-1.1,0.1-1.6c0.1-0.8,0.7-1.4,1.5-1.5c0.4,0,1.3-0.1,1.8-0.1h3.1v-4.2l0,0
				c-11.8-1.2-13.9,0.2-13.9,7.7v35.4h7.3V61.7h6.5v-4.2H436.4z"/>
			<path class="st1" d="M167.4,81.4c1.5-2.3,2.3-4.5,2.3-6.7c0-3.1-1.1-5.9-3.1-7.9c-1.6-1.7-4.2-3.2-7.8-4.9
				c-3-1.4-4.6-2.1-5.9-2.8c-2.1-1.1-3.4-3.2-3.4-5.5c0-2.9,2-5.4,4.9-6.1c0.6-0.1,1.2-0.3,2-0.3c3.8,0,6.5,1.9,8.3,5.7l0.1,0.3
				l3.1-2.1l-0.1-0.2c-0.7-1.5-1.7-2.8-3.1-4c-1.3-1.1-2.8-2-4.5-2.6c-1.6-0.6-3.4-0.9-5.1-0.9c-2.5,0-4.9,0.5-6.9,1.6
				c-2.2,1.2-3.9,2.7-5,4.4c-1.2,2-1.8,4.1-1.8,6.2c0,3.2,0.9,5.9,2.7,7.6c1.5,1.4,3.9,2.8,7.5,4.4c3.3,1.4,4.7,2,6.4,3.2
				c0.3,0.2,0.5,0.4,0.8,0.6c1.6,1.3,2.5,3.1,2.5,5.3c0,3.9-3.3,7-7.3,7h0l0,0l0,0c0,0,0,0-0.1,0c-1.9,0-3.5-0.4-4.8-1.3
				c-1.3-0.8-2.5-2.2-3.6-3.9l-0.1-0.2l-3.3,2.4l0.1,0.2c2.6,4.4,7.2,6.7,13.4,6.7c2.4,0,4.6-0.5,6.8-1.6
				C164.6,84.8,166.2,83.2,167.4,81.4z"/>
			<path class="st1" d="M381.6,81.4c1.5-2.3,2.3-4.5,2.3-6.7c0-3.1-1.1-5.9-3.1-7.9c-1.6-1.7-4.2-3.2-7.8-4.9
				c-3-1.4-4.6-2.1-5.9-2.8c-2.1-1.1-3.4-3.2-3.4-5.5c0-2.9,2-5.4,4.9-6.1c0.6-0.1,1.2-0.3,2-0.3c3.8,0,6.5,1.9,8.3,5.7l0.1,0.3
				l3.1-2.1l-0.1-0.2c-0.7-1.5-1.7-2.8-3.1-4c-1.3-1.1-2.8-2-4.5-2.6c-1.6-0.6-3.4-0.9-5.1-0.9c-2.5,0-4.9,0.5-6.9,1.6
				c-2.2,1.2-3.9,2.7-5,4.4c-1.2,2-1.8,4.1-1.8,6.2c0,3.2,0.9,5.9,2.7,7.6c1.5,1.4,3.9,2.8,7.5,4.4c3.3,1.4,4.7,2,6.4,3.2
				c0.3,0.2,0.5,0.4,0.8,0.6c1.6,1.3,2.5,3.1,2.5,5.3c0,3.9-3.3,7-7.3,7h0l0,0l0,0c0,0-0.1,0-0.1,0c-1.9,0-3.5-0.4-4.8-1.3
				c-1.3-0.8-2.5-2.2-3.6-3.9l-0.1-0.2l-3.3,2.4l0.1,0.2c2.6,4.4,7.2,6.7,13.4,6.7c2.4,0,4.6-0.5,6.8-1.6
				C378.8,84.8,380.4,83.2,381.6,81.4z"/>
		</g>
		<g>
			<path class="st1" d="M461.5,99.9v-0.8h5.8v0.8h-1.9v8.7h-2v-8.7H461.5z"/>
			<path class="st1" d="M141.3,108.6V94.4h5.8c0.7,0,1.4,0.2,2.1,0.5c0.7,0.3,1.2,0.8,1.6,1.4c0.4,0.6,0.6,1.4,0.6,2.3
				c0,1-0.2,1.8-0.6,2.4c-0.4,0.6-1,1-1.8,1.3c-0.8,0.3-1.8,0.4-3,0.4h-1.9v5.9H141.3z M143.9,95.1v6.7h1.3c1.2,0,2-0.3,2.6-0.9
				c0.6-0.6,0.8-1.5,0.8-2.7c0-0.6-0.1-1.1-0.3-1.5c-0.2-0.5-0.6-0.8-1.1-1.1c-0.5-0.3-1.2-0.4-2.1-0.4H143.9z"/>
			<path class="st1" d="M156.2,108.6h-2v-9.5h4.1c0.5,0,1,0.1,1.4,0.3c0.4,0.2,0.8,0.5,1,0.9c0.3,0.4,0.4,0.8,0.4,1.3
				c0,0.7-0.2,1.2-0.5,1.5c-0.3,0.3-0.8,0.7-1.5,0.8l2.5,4.6h-2.3l-2.3-4.7h0.2c1.3,0,1.9-0.7,1.9-2.1c0-0.5-0.2-1-0.5-1.4
				c-0.3-0.4-0.9-0.5-1.6-0.5h-0.9V108.6z"/>
			<path class="st1" d="M189.7,99.1v0.7H186c-0.3,0-0.5,0.1-0.5,0.4v3h3.5v0.9h-3.5v3.1c0,0.4,0.2,0.7,0.7,0.7h3.7v0.7h-4.9
				c-0.5,0-0.9-0.1-1.1-0.4c-0.3-0.3-0.4-0.7-0.4-1.3v-5.8c0-0.6,0.1-1.1,0.3-1.4c0.2-0.3,0.7-0.5,1.4-0.5H189.7z"/>
			<path class="st1" d="M210.8,94.3c0.4,0,0.7,0.1,0.9,0.4c0.2,0.3,0.4,0.6,0.4,0.9c0,0.4-0.1,0.7-0.4,0.9c-0.2,0.2-0.5,0.4-0.9,0.4
				c-0.4,0-0.7-0.1-0.9-0.4c-0.2-0.3-0.4-0.6-0.4-0.9c0-0.4,0.1-0.7,0.4-0.9C210.2,94.4,210.5,94.3,210.8,94.3z M211.8,108.6h-1.9
				v-9.5h1.9V108.6z"/>
			<path class="st1" d="M228.9,108.6H228v-8.1c0-0.5,0.1-0.8,0.4-1.1c0.3-0.2,0.6-0.3,1.1-0.3c0.3,0,0.6,0.1,0.9,0.2
				c0.2,0.1,0.4,0.4,0.6,0.6c0.5,0.8,1.1,1.6,1.8,2.6c0.7,1,1.1,1.7,1.3,2c0.2,0.3,0.4,0.5,0.4,0.5c0.1,0,0.1-0.1,0.1-0.2v-5.8h0.9
				v8.8c0,0.4,0,0.6-0.1,0.8c-0.1,0.1-0.2,0.2-0.5,0.2c-0.2,0-0.3,0-0.4-0.1c-0.1-0.1-0.3-0.2-0.3-0.4c-0.1-0.1-0.2-0.3-0.3-0.5
				l-0.8-1.1c-1.2-1.9-2.1-3.2-2.6-4c-0.5-0.8-0.9-1.4-1-1.6c-0.1-0.2-0.3-0.3-0.3-0.3c-0.1,0-0.2,0.1-0.2,0.3V108.6z"/>
			<path class="st1" d="M239.3,108.6h-0.9l2.2-8.1c0.2-0.5,0.4-0.9,0.6-1.2c0.3-0.3,0.6-0.4,1.2-0.4c0.6,0,1,0.2,1.2,0.5
				c0.2,0.3,0.4,0.8,0.7,1.6l2.2,7.6h-2.1l-0.8-2.9h-3.5L239.3,108.6z M240.3,104.8h3l-1.1-3.7c0-0.2-0.1-0.3-0.1-0.5
				c0-0.1-0.1-0.3-0.1-0.3c-0.1-0.1-0.1-0.1-0.2-0.1c-0.1,0-0.2,0.1-0.3,0.2c0,0.1-0.1,0.4-0.2,0.8L240.3,104.8z"/>
			<path class="st1" d="M249.5,94.3h2v13.3c0,0.1,0,0.2,0.1,0.2c0,0,0.1,0.1,0.2,0.1h1.3v0.7h-2.2c-0.5,0-0.9-0.1-1-0.3
				c-0.2-0.2-0.3-0.5-0.3-1V94.3z"/>
			<path class="st1" d="M293.9,99.9v-0.8h5.8v0.8h-1.9v8.7h-2v-8.7H293.9z"/>
			<path class="st1" d="M301.2,99.1h2.1l2,6.7c0.1,0.5,0.3,0.8,0.3,1c0.1,0.2,0.1,0.3,0.2,0.4c0.1,0.1,0.1,0.2,0.2,0.2
				c0.1,0,0.1-0.1,0.2-0.1c0.1-0.1,0.1-0.2,0.1-0.4c0-0.2,0.1-0.3,0.1-0.5l0.8-2.5l-1.5-4.8h2.2l2.1,7.2c0.1,0.2,0.1,0.4,0.2,0.6
				c0.1,0.2,0.1,0.4,0.1,0.5c0,0.1,0.1,0.1,0.2,0.1c0.1,0,0.1,0,0.2-0.1c0.1-0.1,0.1-0.1,0.1-0.2c0-0.1,0.1-0.2,0.1-0.3
				c0-0.1,0.1-0.2,0.1-0.2l2.1-7.6h1.1l-2.4,8.5c-0.1,0.5-0.3,0.9-0.6,1c-0.2,0.2-0.7,0.2-1.3,0.2c-0.8,0-1.3-0.4-1.6-1.1l-0.6-2.1
				h0l-0.5,1.8c-0.2,0.6-0.4,1-0.6,1.2c-0.2,0.2-0.6,0.3-1,0.3c-0.4,0-0.8-0.1-1.1-0.3c-0.3-0.2-0.5-0.6-0.6-1.1L301.2,99.1z"/>
			<path class="st1" d="M316.7,108.6h-0.9l2.2-8.1c0.2-0.5,0.4-0.9,0.6-1.2c0.3-0.3,0.6-0.4,1.2-0.4c0.6,0,1,0.2,1.2,0.5
				c0.2,0.3,0.4,0.8,0.7,1.6l2.2,7.6h-2.1l-0.8-2.9h-3.5L316.7,108.6z M317.7,104.8h3l-1.1-3.7c0-0.2-0.1-0.3-0.1-0.5
				c0-0.1-0.1-0.3-0.1-0.3c0-0.1-0.1-0.1-0.2-0.1c-0.1,0-0.2,0.1-0.3,0.2c0,0.1-0.1,0.4-0.2,0.8L317.7,104.8z"/>
			<path class="st1" d="M328.8,108.6h-2v-9.5h4.1c0.5,0,1,0.1,1.4,0.3c0.4,0.2,0.8,0.5,1,0.9c0.3,0.4,0.4,0.8,0.4,1.3
				c0,0.7-0.2,1.2-0.5,1.5c-0.3,0.3-0.8,0.6-1.6,0.8l2.5,4.6H332l-2.3-4.7h0.2c1.3,0,1.9-0.7,1.9-2.1c0-0.5-0.2-1-0.5-1.4
				c-0.3-0.4-0.9-0.5-1.6-0.5h-0.9V108.6z"/>
			<path class="st1" d="M343.3,99.1v0.7h-3.7c-0.3,0-0.5,0.1-0.5,0.4v3h3.5v0.9h-3.5v3.1c0,0.4,0.2,0.7,0.7,0.7h3.7v0.7h-4.9
				c-0.5,0-0.9-0.1-1.1-0.4c-0.3-0.3-0.4-0.7-0.4-1.3v-5.8c0-0.6,0.1-1.1,0.3-1.4c0.2-0.3,0.7-0.5,1.4-0.5H343.3z"/>
			<path class="st1" d="M354.4,108.6V94.4h4.6c1.2,0,2.3,0.2,3.3,0.6c0.9,0.4,1.7,0.9,2.4,1.6c0.6,0.7,1.1,1.5,1.4,2.4
				c0.3,0.9,0.5,1.8,0.5,2.8c0,1.5-0.3,2.7-0.9,3.8c-0.6,1-1.4,1.8-2.5,2.3c-1,0.5-2.3,0.8-3.6,0.8H354.4z M357.1,95.3v12.4h1.7
				c1.3,0,2.4-0.3,3.1-0.8c0.8-0.6,1.3-1.3,1.6-2.2c0.3-0.9,0.4-1.8,0.4-2.9c0-1.2-0.2-2.3-0.6-3.3c-0.4-1-0.9-1.8-1.7-2.3
				c-0.8-0.6-1.7-0.9-2.8-0.9H357.1z"/>
			<path class="st1" d="M375.9,99.1v0.7h-3.7c-0.3,0-0.5,0.1-0.5,0.4v3h3.5v0.9h-3.5v3.1c0,0.4,0.2,0.7,0.7,0.7h3.7v0.7h-4.9
				c-0.5,0-0.9-0.1-1.1-0.4c-0.3-0.3-0.4-0.7-0.4-1.3v-5.8c0-0.6,0.1-1.1,0.3-1.4c0.2-0.3,0.7-0.5,1.4-0.5H375.9z"/>
			<path class="st1" d="M386.3,99.1l-2.3,8.1c-0.2,0.6-0.4,1-0.6,1.2c-0.2,0.3-0.6,0.4-1.1,0.4c-0.5,0-0.9-0.1-1.1-0.4
				c-0.2-0.3-0.4-0.7-0.6-1.3l-2.3-8h2.2l2.2,7.3c0.1,0.2,0.1,0.4,0.1,0.5c0,0.1,0.1,0.2,0.1,0.3c0,0.1,0.1,0.1,0.2,0.1
				c0.1,0,0.2-0.1,0.2-0.2c0.1-0.1,0.1-0.4,0.2-0.6l2.1-7.3H386.3z"/>
			<path class="st1" d="M395.4,99.1v0.7h-3.7c-0.3,0-0.5,0.1-0.5,0.4v3h3.5v0.9h-3.5v3.1c0,0.4,0.2,0.7,0.7,0.7h3.7v0.7h-4.9
				c-0.5,0-0.9-0.1-1.1-0.4c-0.3-0.3-0.4-0.7-0.4-1.3v-5.8c0-0.6,0.1-1.1,0.3-1.4c0.2-0.3,0.7-0.5,1.4-0.5H395.4z"/>
			<path class="st1" d="M398.8,94.4h2v13.2c0,0.1,0,0.2,0.1,0.2c0,0,0.1,0.1,0.2,0.1h1.3v0.7h-2.2c-0.5,0-0.8-0.1-1-0.3
				c-0.2-0.2-0.3-0.5-0.3-1V94.4z"/>
			<path class="st1" d="M418.9,113.3h-2V99.1h3.1c1,0,1.9,0.2,2.7,0.6c0.8,0.4,1.4,1,1.9,1.7c0.4,0.7,0.7,1.5,0.7,2.4
				c0,1.5-0.4,2.7-1.2,3.5c-0.8,0.8-1.9,1.2-3.3,1.2h-1.9V113.3z M418.9,99.8v8.1h1.4c0.6,0,1.1-0.2,1.5-0.5
				c0.4-0.3,0.7-0.7,0.9-1.3c0.2-0.5,0.3-1.2,0.3-1.9c0-0.8-0.1-1.5-0.2-2.1c-0.2-0.6-0.5-1.2-1-1.7c-0.5-0.5-1.3-0.7-2.3-0.7H418.9
				z"/>
			<path class="st1" d="M429.5,108.6h-1v-7.9c0-0.6,0.1-1,0.3-1.3c0.2-0.3,0.6-0.5,1.2-0.5c0.6,0,0.9,0.1,1.1,0.4
				c0.2,0.3,0.4,0.7,0.6,1.4l1.3,4.2h0.1l1.4-4.9c0.1-0.4,0.3-0.7,0.5-0.8c0.2-0.2,0.6-0.2,1-0.2c0.6,0,1,0.2,1.3,0.5
				c0.3,0.3,0.4,0.8,0.4,1.3v7.9h-1.9v-7.8c0-0.2,0-0.3-0.1-0.3c0-0.1-0.1-0.1-0.2-0.1c-0.1,0-0.2,0.1-0.2,0.3
				c-0.1,0.2-0.2,0.7-0.4,1.5l-1.6,5.6c-0.1,0.4-0.2,0.6-0.3,0.8c-0.1,0.1-0.2,0.2-0.4,0.2c-0.2,0-0.3-0.1-0.4-0.2
				c-0.1-0.1-0.1-0.3-0.3-0.7l-2-6.8c-0.1-0.3-0.1-0.4-0.1-0.5c0-0.1-0.1-0.1-0.2-0.1c0,0-0.1,0-0.1,0.1c0,0.1,0,0.2,0,0.5V108.6z"
				/>
			<path class="st1" d="M447.8,99.1v0.7h-3.7c-0.3,0-0.5,0.1-0.5,0.4v3h3.5v0.9h-3.5v3.1c0,0.4,0.2,0.7,0.7,0.7h3.7v0.7h-4.9
				c-0.5,0-0.9-0.1-1.1-0.4c-0.3-0.3-0.4-0.7-0.4-1.3v-5.8c0-0.6,0.1-1.1,0.3-1.4c0.2-0.3,0.7-0.5,1.4-0.5H447.8z"/>
			<path class="st1" d="M452.1,108.6h-0.9v-8.1c0-0.5,0.1-0.8,0.4-1.1c0.3-0.2,0.6-0.3,1.1-0.3c0.3,0,0.6,0.1,0.8,0.2
				c0.2,0.1,0.4,0.4,0.6,0.6c0.5,0.8,1.1,1.6,1.8,2.6c0.7,1,1.1,1.7,1.3,2c0.2,0.3,0.4,0.5,0.4,0.5c0.1,0,0.1-0.1,0.1-0.2v-5.8h0.9
				v8.8c0,0.4,0,0.6-0.1,0.8c-0.1,0.1-0.2,0.2-0.5,0.2c-0.2,0-0.3,0-0.4-0.1c-0.1-0.1-0.2-0.2-0.4-0.4c-0.1-0.1-0.2-0.3-0.3-0.5
				l-0.8-1.1c-1.2-1.9-2.1-3.2-2.6-4c-0.5-0.8-0.9-1.4-1-1.6c-0.1-0.2-0.3-0.3-0.3-0.3c-0.1,0-0.2,0.1-0.2,0.3V108.6z"/>
			<path class="st1" d="M292.5,99.9v-0.8h-2h-0.3v-0.6v-2.3c0-0.2,0-0.4,0-0.6c0-0.4,0.4-0.8,0.8-0.8c0.1,0,0.5,0,0.7,0h0.8v-0.9
				c-0.8-0.1-1.3-0.1-1.8-0.1c-1.1,0-1.7,0.2-2,0.5c-0.3,0.3-0.4,0.9-0.4,2v12.2h2V100v-0.1h0.3H292.5z"/>
			<path class="st1" d="M181,99.7v-0.8h-2h-0.3v-0.3v-2.3c0-0.2,0-0.4,0-0.6c0-0.4,0.4-0.8,0.8-0.8c0.1,0,0.5,0,0.7,0h0.8v-0.9
				c-0.8-0.1-1.3-0.1-1.8-0.1c-1.1,0-1.7,0.2-2,0.5c-0.3,0.3-0.4,0.9-0.4,2v12.2h1.9V100v-0.3h0.3H181z"/>
			<path class="st1" d="M197.9,107.4c0.3-0.5,0.5-1,0.5-1.5c0-0.8-0.4-1.4-0.7-1.7c-0.4-0.4-1-0.9-1.8-1.3l-0.4-0.2
				c-0.4-0.2-0.6-0.3-0.8-0.5c-0.1-0.1-0.3-0.2-0.4-0.3c-0.2-0.2-0.3-0.5-0.3-0.8l0-0.2c0-0.2,0.1-0.3,0.2-0.5l0-0.1
				c0.1-0.2,0.2-0.3,0.4-0.3l0,0l0.1,0c0.3-0.1,0.8-0.2,1.4-0.1l0.1,0c0.3,0,0.5,0,1.3,0.1h0l0-0.7c-2.1-0.3-3.4-0.2-4.4,0.4
				c-0.7,0.4-1.1,1.2-1.1,2.1c0,0.5,0.2,1.1,0.6,1.5c0.3,0.3,0.8,0.7,1.6,1.1c0.7,0.4,1,0.6,1.4,0.9c0.6,0.4,0.8,0.9,0.8,1.2
				c0,0.5-0.3,1.4-2.1,1.4c-0.5,0-1.2,0-1.9-0.2h0v0.6l0,0c0.4,0.1,0.9,0.2,1.3,0.2c0.4,0,0.9,0,1.4,0c0.6,0,1.2-0.1,1.6-0.3
				C197.2,108.1,197.6,107.8,197.9,107.4z"/>
			<path class="st1" d="M206.2,107.4c0.3-0.5,0.5-1,0.5-1.5c0-0.8-0.4-1.4-0.7-1.7c-0.4-0.4-1-0.9-1.8-1.3l-0.4-0.2
				c-0.4-0.2-0.6-0.3-0.8-0.5c-0.1-0.1-0.3-0.2-0.4-0.3c-0.2-0.2-0.3-0.5-0.3-0.8l0-0.2c0-0.2,0.1-0.3,0.2-0.5l0-0.1
				c0.1-0.2,0.2-0.3,0.4-0.3l0,0l0.1,0c0.3-0.1,0.8-0.2,1.4-0.1l0.1,0c0.3,0,0.5,0,1.3,0.1h0l0-0.7c-2.1-0.3-3.4-0.2-4.4,0.4
				c-0.7,0.4-1.1,1.2-1.1,2.1c0,0.5,0.2,1.1,0.6,1.5c0.3,0.3,0.8,0.7,1.6,1.1c0.7,0.4,1,0.6,1.4,0.9c0.6,0.4,0.8,0.9,0.8,1.2
				c0,0.5-0.3,1.4-2.1,1.4c-0.5,0-1.2,0-1.9-0.2h0v0.6l0,0c0.4,0.1,0.9,0.2,1.3,0.2c0.4,0,0.9,0,1.4,0c0.6,0,1.2-0.1,1.6-0.3
				C205.5,108.1,205.9,107.8,206.2,107.4z"/>
			<path class="st1" d="M279.9,98.8c-2.7,0-4.9,2.3-4.9,5c0,2.8,2.2,5.1,4.9,5.1c2.7,0,4.9-2.3,4.9-5.1
				C284.8,101.1,282.6,98.8,279.9,98.8z M279.9,108.1c-1.5,0-2.6-1.9-2.6-4.3c0-2.4,1.2-4.3,2.6-4.3c1.5,0,2.6,1.9,2.6,4.3
				C282.6,106.2,281.4,108.1,279.9,108.1z"/>
			<path class="st1" d="M271.5,106.9c0.5-0.8,0.8-1.5,0.8-2.3c0-1-0.4-2-1-2.7c-0.5-0.6-1.4-1.1-2.7-1.7c-1.1-0.5-1.6-0.7-2-1
				c-0.8-0.4-1.2-1.1-1.2-2c0-1,0.7-1.9,1.7-2.2c0.2-0.1,0.4-0.1,0.7-0.1c1.3,0,2.3,0.7,2.9,2l0,0l0.9-0.6c-0.2-0.5-0.6-1-1-1.3
				c-0.4-0.4-1-0.7-1.5-0.9c-0.6-0.2-1.1-0.3-1.7-0.3c-0.9,0-1.6,0.2-2.3,0.6c-0.7,0.4-1.3,0.9-1.7,1.5c-0.4,0.7-0.6,1.4-0.6,2.1
				c0,1.1,0.3,2,0.9,2.5c0.5,0.5,1.3,1,2.6,1.5c1.1,0.5,1.6,0.7,2.2,1.1c0.1,0.1,0.2,0.1,0.3,0.2c0.6,0.5,0.9,1.1,0.9,1.9
				c0,1.4-1.2,2.5-2.6,2.5l0,0c0,0,0,0,0,0c-0.7,0-1.2-0.2-1.7-0.5c-0.4-0.3-0.9-0.8-1.3-1.4v0l-1,0.7c0.9,1.5,2.5,2.3,4.5,2.3
				c0.8,0,1.6-0.2,2.3-0.6C270.5,108.1,271.1,107.6,271.5,106.9z"/>
			<path class="st1" d="M220,98.7c-2.7,0-4.9,2.3-4.9,5.1c0,2.8,2.2,5.1,4.9,5.1c2.7,0,4.9-2.3,4.9-5.1
				C224.8,101,222.7,98.7,220,98.7z M220,108.1c-1.5,0-2.6-1.9-2.6-4.3s1.2-4.3,2.6-4.3s2.6,1.9,2.6,4.3S221.4,108.1,220,108.1z"/>
			<path class="st1" d="M168.5,98.7c-2.7,0-4.9,2.3-4.9,5.1c0,2.8,2.2,5.1,4.9,5.1c2.7,0,4.9-2.3,4.9-5.1
				C173.3,101,171.2,98.7,168.5,98.7z M168.5,108.1c-1.5,0-2.6-1.9-2.6-4.3s1.2-4.3,2.6-4.3c1.5,0,2.6,1.9,2.6,4.3
				S169.9,108.1,168.5,108.1z"/>
			<path class="st1" d="M409,98.7c-2.7,0-4.9,2.3-4.9,5.1c0,2.8,2.2,5.1,4.9,5.1c2.7,0,4.9-2.3,4.9-5.1
				C413.8,101,411.7,98.7,409,98.7z M409,108.1c-1.5,0-2.6-1.9-2.6-4.3s1.2-4.3,2.6-4.3c1.4,0,2.6,1.9,2.6,4.3
				S410.4,108.1,409,108.1z"/>
		</g>
		<g>
			<path class="st1" d="M93.1,98.1c0-7.6-5.5-13.2-18.8-19.2c-11.4-5.1-22.5-11.3-22.5-25.1c0-6.3,1.9-15,11-21.1H32.7v86.8h24
				C80.2,119.4,93.1,112.1,93.1,98.1z"/>
			<path class="st1" d="M99,90.5c0.7,1.8,1.1,3.7,1.3,5.8h19.1v-5.8H99z"/>
			<path class="st1" d="M89.4,78.9c2.4,1.7,4.5,3.6,6.3,5.8h23.8v-5.8H89.4z"/>
			<path class="st1" d="M119.5,102h-19.3c-0.3,1.8-0.8,3.8-1.6,5.8h20.9V102z"/>
			<path class="st1" d="M119.5,38.4v-5.8H94.6c-9.6,0-20.2,1.2-27.4,5.8H119.5z"/>
			<path class="st1" d="M95.2,113.6c-1.6,2-3.7,4-6.4,5.8h30.7v-5.8H95.2z"/>
			<path class="st1" d="M61.5,44.2c-1,1.7-1.7,3.6-2.1,5.8h60.1v-5.8H61.5z"/>
			<path class="st1" d="M67.8,67.3c2.5,1.6,5.6,3.2,9.4,4.9c0.7,0.3,1.3,0.6,2,0.9h40.2v-5.8H67.8z"/>
			<path class="st1" d="M59.2,55.7c0.3,2.1,0.9,4,2.2,5.8h58.1v-5.8H59.2z"/>
		</g>
	</g>
</g>
</svg>
