<svg width="1021" height="1080" viewBox="0 0 1021 1080" fill="none" xmlns="http://www.w3.org/2000/svg">
<g clip-path="url(#clip0_792_79743)">
<mask id="mask0_792_79743" style="mask-type:luminance" maskUnits="userSpaceOnUse" x="0" y="0" width="1021" height="1080">
<path d="M0 0H1021V1080H0V0Z" fill="white"/>
</mask>
<g mask="url(#mask0_792_79743)">
<path d="M0 0H1021V1080H0V0Z" fill="#D6EFFF"/>
<path d="M1014 933C529.646 933 137 540.354 137 56C137 -428.354 529.646 -821 1014 -821C1498.35 -821 1891 -428.354 1891 56C1891 540.354 1498.35 933 1014 933Z" fill="#D1EDFF"/>
<path d="M1014 788C609.728 788 282 460.272 282 56C282 -348.272 609.728 -676 1014 -676C1418.27 -676 1746 -348.272 1746 56C1746 460.272 1418.27 788 1014 788Z" fill="#CCEBFF"/>
<path d="M1014 640C691.466 640 430 378.534 430 56C430 -266.534 691.466 -528 1014 -528C1336.53 -528 1598 -266.534 1598 56C1598 378.534 1336.53 640 1014 640Z" fill="#C7E9FF"/>
<path d="M1014 493.162C772.562 493.162 576.838 297.438 576.838 56.0001C576.838 -185.438 772.562 -381.162 1014 -381.162C1255.44 -381.162 1451.16 -185.438 1451.16 56.0001C1451.16 297.438 1255.44 493.162 1014 493.162Z" fill="#C2E7FF"/>
<path d="M1014.5 348C852.957 348 722 217.043 722 55.5C722 -106.043 852.957 -237 1014.5 -237C1176.04 -237 1307 -106.043 1307 55.5C1307 217.043 1176.04 348 1014.5 348Z" fill="#BDE5FF"/>
<path d="M1014.5 206C931.381 206 864 138.619 864 55.5C864 -27.6189 931.381 -95 1014.5 -95C1097.62 -95 1165 -27.6189 1165 55.5C1165 138.619 1097.62 206 1014.5 206Z" fill="#B8E3FF"/>
</g>
</g>
<defs>
<clipPath id="clip0_792_79743">
<rect width="1021" height="1080" fill="white" transform="matrix(-1 0 0 1 1021 0)"/>
</clipPath>
</defs>
</svg>
