<svg width="1021" height="1080" viewBox="0 0 1021 1080" fill="none" xmlns="http://www.w3.org/2000/svg">
<g clip-path="url(#clip0_770_65705)">
<rect width="1021" height="1080" fill="#D6EFFF"/>
<path d="M7.00006 933C491.354 933 884 540.354 884 56C884 -428.354 491.354 -821 7.00006 -821C-477.354 -821 -870 -428.354 -870 56C-870 540.354 -477.354 933 7.00006 933Z" fill="#D1EDFF"/>
<path d="M7 788C411.272 788 739 460.272 739 56C739 -348.272 411.272 -676 7 -676C-397.272 -676 -725 -348.272 -725 56C-725 460.272 -397.272 788 7 788Z" fill="#CCEBFF"/>
<path d="M7 640C329.534 640 591 378.534 591 56C591 -266.534 329.534 -528 7 -528C-315.534 -528 -577 -266.534 -577 56C-577 378.534 -315.534 640 7 640Z" fill="#C7E9FF"/>
<path d="M7.00021 493.162C248.438 493.162 444.162 297.438 444.162 56.0002C444.162 -185.438 248.438 -381.162 7.00021 -381.162C-234.438 -381.162 -430.162 -185.438 -430.162 56.0002C-430.162 297.438 -234.438 493.162 7.00021 493.162Z" fill="#C2E7FF"/>
<path d="M6.50003 348C168.043 348 299 217.043 299 55.5C299 -106.043 168.043 -237 6.50003 -237C-155.043 -237 -286 -106.043 -286 55.5C-286 217.043 -155.043 348 6.50003 348Z" fill="#BDE5FF"/>
<path d="M6.50002 206C89.6189 206 157 138.619 157 55.5C157 -27.6189 89.6189 -95 6.50002 -95C-76.6188 -95 -144 -27.6189 -144 55.5C-144 138.619 -76.6188 206 6.50002 206Z" fill="#B8E3FF"/>
</g>
<defs>
<clipPath id="clip0_770_65705">
<rect width="1021" height="1080" fill="white"/>
</clipPath>
</defs>
</svg>
