<svg width="301" height="74" viewBox="0 0 301 74" fill="none" xmlns="http://www.w3.org/2000/svg">
<g clip-path="url(#clip0_3584_71927)">
<rect width="301" height="74" fill="#FFFBF0"/>
<g clip-path="url(#clip1_3584_71927)">
<path d="M52.1611 300.5C196.742 300.5 313.948 183.294 313.948 38.7129C313.948 -105.868 196.742 -223.074 52.1611 -223.074C-92.4199 -223.074 -209.626 -105.868 -209.626 38.7129C-209.626 183.294 -92.4199 300.5 52.1611 300.5Z" fill="#FFF9E4"/>
<path d="M52.1612 257.219C172.838 257.219 270.665 159.392 270.665 38.7151C270.665 -81.9614 172.838 -179.789 52.1612 -179.789C-68.5153 -179.789 -166.343 -81.9614 -166.343 38.7151C-166.343 159.392 -68.5153 257.219 52.1612 257.219Z" fill="#FFF5D5"/>
<path d="M52.1612 213.038C148.439 213.038 226.487 134.99 226.487 38.7125C226.487 -57.565 148.439 -135.613 52.1612 -135.613C-44.1162 -135.613 -122.165 -57.565 -122.165 38.7125C-122.165 134.99 -44.1162 213.038 52.1612 213.038Z" fill="#FEF2CB"/>
<path d="M52.1603 169.211C124.23 169.211 182.655 110.787 182.655 38.7169C182.655 -33.3531 124.23 -91.7773 52.1603 -91.7773C-19.9097 -91.7773 -78.334 -33.3531 -78.334 38.7169C-78.334 110.787 -19.9097 169.211 52.1603 169.211Z" fill="#FEF1C2"/>
<path d="M52.0118 125.878C100.233 125.878 139.324 86.7872 139.324 38.566C139.324 -9.65512 100.233 -48.7461 52.0118 -48.7461C3.79068 -48.7461 -35.3003 -9.65512 -35.3003 38.566C-35.3003 86.7872 3.79068 125.878 52.0118 125.878Z" fill="#FFEDB0"/>
<path d="M52.0117 83.49C76.823 83.49 96.9364 63.3765 96.9364 38.5653C96.9364 13.7541 76.823 -6.35938 52.0117 -6.35938C27.2005 -6.35938 7.08704 13.7541 7.08704 38.5653C7.08704 63.3765 27.2005 83.49 52.0117 83.49Z" fill="#FFE899"/>
</g>
</g>
<defs>
<clipPath id="clip0_3584_71927">
<rect width="301" height="74" fill="white"/>
</clipPath>
<clipPath id="clip1_3584_71927">
<rect width="301" height="74" fill="white"/>
</clipPath>
</defs>
</svg>
