<svg width="3416" height="2734" viewBox="0 0 3416 2734" fill="none" xmlns="http://www.w3.org/2000/svg">
<g clip-path="url(#clip0_1214_131307)">
<rect width="3416" height="2734" fill="#FFD546"/>
<path d="M347.708 6369.81C2294.65 6369.81 3872.95 4791.58 3872.95 2844.73C3872.95 897.873 2294.65 -680.362 347.708 -680.362C-1599.23 -680.362 -3177.54 897.873 -3177.54 2844.73C-3177.54 4791.58 -1599.23 6369.81 347.708 6369.81Z" fill="#FFD546"/>
<path d="M347.71 5778.81C1968.23 5778.81 3281.92 4465.17 3281.92 2844.72C3281.92 1224.28 1968.23 -89.356 347.71 -89.356C-1272.81 -89.356 -2586.5 1224.28 -2586.5 2844.72C-2586.5 4465.17 -1272.81 5778.81 347.71 5778.81Z" fill="#FFD546"/>
<path d="M347.706 5293.69C1700.3 5293.69 2796.79 4197.25 2796.79 2844.72C2796.79 1492.2 1700.3 395.754 347.706 395.754C-1004.88 395.754 -2101.38 1492.2 -2101.38 2844.72C-2101.38 4197.25 -1004.88 5293.69 347.706 5293.69Z" fill="#FFDA5C"/>
<path d="M347.709 4798.55C1426.82 4798.55 2301.62 3923.79 2301.62 2844.72C2301.62 1765.66 1426.82 890.901 347.709 890.901C-731.407 890.901 -1606.2 1765.66 -1606.2 2844.72C-1606.2 3923.79 -731.407 4798.55 347.709 4798.55Z" fill="#FFDE6B"/>
<path d="M347.702 4307.29C1155.49 4307.29 1810.33 3652.48 1810.33 2844.73C1810.33 2036.97 1155.49 1382.16 347.702 1382.16C-460.087 1382.16 -1114.93 2036.97 -1114.93 2844.73C-1114.93 3652.48 -460.087 4307.29 347.702 4307.29Z" fill="#FFE17A"/>
<path d="M346.035 3821.64C886.517 3821.64 1324.66 3383.51 1324.66 2843.05C1324.66 2302.6 886.517 1864.47 346.035 1864.47C-194.447 1864.47 -632.594 2302.6 -632.594 2843.05C-632.594 3383.51 -194.447 3821.64 346.035 3821.64Z" fill="#FFE48A"/>
<path d="M346.034 3346.56C624.128 3346.56 849.568 3121.13 849.568 2843.05C849.568 2564.97 624.128 2339.54 346.034 2339.54C67.9398 2339.54 -157.5 2564.97 -157.5 2843.05C-157.5 3121.13 67.9398 3346.56 346.034 3346.56Z" fill="#FFE899"/>
</g>
<defs>
<clipPath id="clip0_1214_131307">
<rect width="3416" height="2734" fill="white"/>
</clipPath>
</defs>
</svg>
