<svg width="80" height="74" viewBox="0 0 80 74" fill="none" xmlns="http://www.w3.org/2000/svg">
<path fill-rule="evenodd" clip-rule="evenodd" d="M59.78 56.8468C61.3854 56.5559 62.464 55.0354 62.2079 53.4241L58.2276 28.3754L10.8018 30.8279L14.4496 61.8225C14.6518 63.5407 16.2616 64.7322 17.9639 64.4237L59.78 56.8468Z" fill="#FDCE4A"/>
<path d="M56.9176 20.8581C56.6593 19.3758 55.343 18.3141 53.8396 18.3756L12.8777 20.0506C11.1469 20.1214 9.83559 21.6391 10.0167 23.3618L10.8018 30.8279L58.2276 28.3754L56.9176 20.8581Z" fill="#D5A501"/>
<path fill-rule="evenodd" clip-rule="evenodd" d="M62.6083 56.8855C64.3083 56.5886 65.4078 54.9221 65.0121 53.2423L59.3212 29.0868L12.7448 30.2117L18.0973 61.6033C18.3766 63.2412 19.934 64.3402 21.5709 64.0543L62.6083 56.8855Z" fill="#FFEAB0"/>
<path d="M57.7256 20.8073C57.4479 19.3665 56.1689 18.338 54.702 18.376L13.9566 19.4325C12.0609 19.4817 10.6858 21.2555 11.1107 23.1036L12.7448 30.2117L59.3212 29.0868L57.7256 20.8073Z" fill="#FFCC1E"/>
<path fill-rule="evenodd" clip-rule="evenodd" d="M67.6443 55.4423C69.4691 55.1342 70.5825 53.2636 69.9832 51.5127L59.9487 22.1948L13.5723 29.6055L23.625 60.2844C24.0872 61.6951 25.5116 62.5555 26.9753 62.3084L67.6443 55.4423Z" fill="white"/>
<path d="M57.2183 14.2173C56.7431 12.829 55.3335 11.9882 53.8862 12.2297L13.5743 18.9551C11.7398 19.2612 10.623 21.1456 11.2352 22.9018L13.5723 29.6055L59.9487 22.1948L57.2183 14.2173Z" fill="#FFD545"/>
<rect x="20.095" y="14.6367" width="2.48633" height="7.79688" rx="1.24316" transform="rotate(-12.9709 20.095 14.6367)" fill="#494949"/>
<rect x="43.4539" y="10.5586" width="2.48633" height="7.79688" rx="1.24316" transform="rotate(-12.9709 43.4539 10.5586)" fill="#494949"/>
<rect x="19.429" y="32.2383" width="6" height="6" rx="3" fill="#E9DBB6"/>
<rect x="26.429" y="51.2383" width="6" height="6" rx="3" fill="#E9DBB6"/>
<rect x="22.429" y="42.2383" width="6" height="6" rx="3" fill="#E9DBB6"/>
<rect x="52.429" y="26.2383" width="6" height="6" rx="3" fill="#E9DBB6"/>
<rect x="59.429" y="45.2383" width="6" height="6" rx="3" fill="#E9DBB6"/>
<rect x="55.429" y="36.2383" width="6" height="6" rx="3" fill="#E9DBB6"/>
<rect x="41.429" y="28.2383" width="6" height="6" rx="3" fill="#E9DBB6"/>
<rect x="48.429" y="47.2383" width="6" height="6" rx="3" fill="#E9DBB6"/>
<rect x="43.3494" y="36.7383" width="8" height="8" rx="4" fill="#FFD545"/>
<rect x="30.429" y="30.2383" width="6" height="6" rx="3" fill="#E9DBB6"/>
<rect x="37.429" y="49.2383" width="6" height="6" rx="3" fill="#E9DBB6"/>
<rect x="33.429" y="40.2383" width="6" height="6" rx="3" fill="#E9DBB6"/>
</svg>
