<svg width="36" height="36" viewBox="0 0 36 36" fill="none" xmlns="http://www.w3.org/2000/svg">
    <path d="M0 18C0 8.059 8.059 0 18 0s18 8.059 18 18-8.059 18-18 18S0 27.941 0 18z" fill="#0077B5"/>
    <path fill-rule="evenodd" clip-rule="evenodd" d="M12.99 11.117c0 1.177-.886 2.118-2.309 2.118h-.026c-1.37 0-2.255-.941-2.255-2.118C8.4 9.915 9.313 9 10.708 9c1.396 0 2.255.915 2.281 2.117zm-.27 3.791v12.257H8.643V14.908h4.079zm14.712 12.257v-7.028c0-3.764-2.012-5.516-4.697-5.516-2.165 0-3.135 1.19-3.677 2.024v-1.736h-4.08c.055 1.15 0 12.256 0 12.256h4.08V20.32c0-.366.027-.732.135-.994.294-.732.966-1.49 2.093-1.49 1.476 0 2.067 1.125 2.067 2.772v6.557h4.079z" fill="#fff"/>
</svg>
