<svg width="29" height="28" viewBox="0 0 29 28" fill="none" xmlns="http://www.w3.org/2000/svg">
    <rect x=".8" width="28" height="28" rx="14" fill="#0366C2"/>
    <path d="M9.58 6.72a1.5 1.5 0 0 0-1.5 1.5v10.44a1.5 1.5 0 0 0 1.5 1.5h6.9l5.04 1.68V8.22a1.5 1.5 0 0 0-1.5-1.5H9.58z" fill="#fff"/>
    <path fill-rule="evenodd" clip-rule="evenodd" d="M19.586 16.08c.209.16.277.506.151.772l-.004.008.004-.007-.002.003-.002.004-.005.01a1.371 1.371 0 0 1-.065.117 2.71 2.71 0 0 1-.185.266c-.166.212-.42.478-.787.739-.738.522-1.917 1.008-3.744 1.008-1.687 0-2.928-.49-3.756-.992a5.724 5.724 0 0 1-.93-.698 4.072 4.072 0 0 1-.322-.337l-.006-.008-.002-.003H9.93s0-.002.311-.4l-.312.398a.677.677 0 0 1 0-.795c.172-.22.45-.22.623-.002l.007.01.04.045c.038.041.099.105.183.184.168.156.43.372.789.59.716.435 1.828.883 3.376.883 1.702 0 2.73-.451 3.315-.867.294-.208.482-.41.592-.55a1.62 1.62 0 0 0 .13-.19v-.002c.127-.26.395-.344.602-.186z" fill="#0366C2"/>
</svg>
