<?xml version="1.0" encoding="UTF-8" standalone="no"?>
<!-- Created with Inkscape (http://www.inkscape.org/) -->

<svg
   version="1.1"
   id="svg1"
   width="512"
   height="512"
   viewBox="0 0 512 512"
   xmlns="http://www.w3.org/2000/svg"
   xmlns:svg="http://www.w3.org/2000/svg">
  <defs
     id="defs1" />
  <g
     id="g1">
    <path
       style="fill:#020202;stroke:none"
       d="M 246,0.42437744 C 220.59013,3.7606812 196.77753,8.1548767 174,20.861877 156.09927,30.848236 140.51309,43.693756 126.94984,59 c -10.43287,11.77359 -18.40768,24.907623 -25.20832,39 -18.774571,38.90491 -21.267063,85.00919 -7.996151,126 6.552081,20.23788 17.768521,38.46259 27.949071,57 15.40094,28.04303 30.85865,56.06058 46.44522,84 20.96817,37.58612 42.03957,75.1629 62.5517,113 4.90762,9.0527 13.57582,35.01837 26.30864,33.74304 11.12222,-1.11401 18.70358,-23.06463 23.2554,-31.74304 17.13761,-32.67413 35.62912,-64.77768 53.60495,-97 17.44473,-31.27029 34.55524,-62.72961 52,-94 C 401.37253,261.19385 418.21622,233.85068 423.75,202 439.04459,113.96936 384.50912,26.998047 297,5.1265564 280.94498,1.1138611 262.53879,-1.7471313 246,0.42437744 M 254,85.30014 C 305.423,80.492584 345.47733,131.97986 340.83023,180 336.89917,220.62115 302.99561,252.00864 263,255.83023 198.84973,261.95984 152.11232,192.66541 178.3125,135 192.3869,104.02289 221.47929,88.340515 254,85.30014 Z"
       id="path1" />
  </g>
</svg>
