<svg width="24" height="24" viewBox="0 0 24 24" fill="none" xmlns="http://www.w3.org/2000/svg">
    <circle cx="8.139" cy="15" r="3" fill="#F0F9FF"/>
    <circle cx="15.62" cy="7.734" r="3" fill="#F0F9FF"/>
    <path d="M7.072 9.813 5.014 11.87a4.5 4.5 0 0 0 6.365 6.364l2.742-2.743a4.499 4.499 0 0 0-1.242-7.242c-.375.34-.762.75-1.11 1.177a3 3 0 0 1 1.291 5.006l-2.74 2.742a3.002 3.002 0 1 1-4.245-4.245l1.19-1.188c-.168-.629-.257-1.371-.193-1.93z" fill="#0A84F2"/>
    <path d="M9.879 7.008a4.5 4.5 0 0 0 1.242 7.242l1.162-1.164a3 3 0 0 1-1.344-5.02l2.74-2.741a3.002 3.002 0 1 1 4.246 4.245l-1.19 1.188c.168.63.233 1.282.192 1.93l2.058-2.058a4.5 4.5 0 1 0-6.364-6.364L9.879 7.008z" fill="#0A84F2"/>
</svg>
